<?xml version="1.0" encoding="UTF-8" standalone="no"?>
<svg
   xmlns:ns0="http://www.iki.fi/pav/software/textext/"
   xmlns:dc="http://purl.org/dc/elements/1.1/"
   xmlns:cc="http://creativecommons.org/ns#"
   xmlns:rdf="http://www.w3.org/1999/02/22-rdf-syntax-ns#"
   xmlns:svg="http://www.w3.org/2000/svg"
   xmlns="http://www.w3.org/2000/svg"
   xmlns:xlink="http://www.w3.org/1999/xlink"
   xmlns:sodipodi="http://sodipodi.sourceforge.net/DTD/sodipodi-0.dtd"
   xmlns:inkscape="http://www.inkscape.org/namespaces/inkscape"
   sodipodi:docname="simple_network.svg"
   inkscape:version="0.92.4 (5da689c313, 2019-01-14)"
   id="svg8"
   version="1.1"
   viewBox="0 0 255 175"
   height="175mm"
   width="255mm">
  <defs
     id="defs2" />
  <sodipodi:namedview
     inkscape:window-maximized="0"
     inkscape:window-y="23"
     inkscape:window-x="0"
     inkscape:window-height="907"
     inkscape:window-width="1679"
     inkscape:guide-bbox="true"
     showguides="true"
     showgrid="false"
     inkscape:document-rotation="0"
     inkscape:current-layer="layer1"
     inkscape:document-units="mm"
     inkscape:cy="347.30626"
     inkscape:cx="511.6244"
     inkscape:zoom="0.7"
     inkscape:pageshadow="2"
     inkscape:pageopacity="0.0"
     borderopacity="1.0"
     bordercolor="#666666"
     pagecolor="#ffffff"
     id="base">
    <sodipodi:guide
       inkscape:locked="false"
       position="390.74804,145.92916"
       orientation="0,-1"
       id="guide896" />
  </sodipodi:namedview>
  <metadata
     id="metadata5">
    <rdf:RDF>
      <cc:Work
         rdf:about="">
        <dc:format>image/svg+xml</dc:format>
        <dc:type
           rdf:resource="http://purl.org/dc/dcmitype/StillImage" />
        <dc:title></dc:title>
      </cc:Work>
    </rdf:RDF>
  </metadata>
  <g
     id="layer1"
     inkscape:groupmode="layer"
     inkscape:label="Layer 1"
     transform="translate(0,-63)">
    <g
       style="stroke:#000000;stroke-opacity:0.7692308"
       id="g881"
       transform="translate(4.2763124,75.370007)">
      <circle
         style="opacity:0.59294888;fill:none;stroke:#000000;stroke-width:0.89999998;stroke-miterlimit:4;stroke-dasharray:none;stroke-opacity:0.7692308;paint-order:markers stroke fill"
         id="path849"
         cx="28.537201"
         cy="48.569939"
         r="8.1264877"
         inkscape:tile-cx="28.537202"
         inkscape:tile-cy="48.569941"
         inkscape:tile-w="17.152976"
         inkscape:tile-h="17.152976"
         inkscape:tile-x0="19.960714"
         inkscape:tile-y0="39.993453" />
      <use
         style="stroke:#000000;stroke-opacity:0.7692308"
         x="0"
         y="0"
         inkscape:tiled-clone-of="#path849"
         xlink:href="#path849"
         transform="translate(0,25.746617)"
         id="use853"
         width="100%"
         height="100%" />
      <use
         style="stroke:#000000;stroke-opacity:0.7692308"
         x="0"
         y="0"
         inkscape:tiled-clone-of="#path849"
         xlink:href="#path849"
         transform="translate(0,51.493234)"
         id="use855"
         width="100%"
         height="100%" />
      <use
         style="stroke:#000000;stroke-opacity:0.7692308"
         x="0"
         y="0"
         inkscape:tiled-clone-of="#path849"
         xlink:href="#path849"
         transform="translate(0,77.239852)"
         id="use857"
         width="100%"
         height="100%" />
    </g>
    <g
       style="stroke:#000000;stroke-opacity:0.7692308"
       transform="translate(26.198931,78.01584)"
       id="g888">
      <use
         style="stroke:#000000;stroke-opacity:0.7692308"
         x="0"
         y="0"
         inkscape:tiled-clone-of="#path849"
         xlink:href="#path849"
         id="use851"
         transform="translate(42.71131,-14.741071)"
         width="100%"
         height="100%"
         inkscape:tile-cx="71.248514"
         inkscape:tile-cy="33.828869"
         inkscape:tile-w="17.152976"
         inkscape:tile-h="17.152976"
         inkscape:tile-x0="62.672026"
         inkscape:tile-y0="25.252381" />
      <use
         style="stroke:#000000;stroke-opacity:0.7692308"
         height="100%"
         width="100%"
         x="0"
         y="0"
         inkscape:tiled-clone-of="#use851"
         xlink:href="#use851"
         transform="translate(0,25.746617)"
         id="use861" />
      <use
         style="stroke:#000000;stroke-opacity:0.7692308"
         height="100%"
         width="100%"
         x="0"
         y="0"
         inkscape:tiled-clone-of="#use851"
         xlink:href="#use851"
         transform="translate(0,51.493234)"
         id="use863" />
      <use
         style="stroke:#000000;stroke-opacity:0.7692308"
         height="100%"
         width="100%"
         x="0"
         y="0"
         inkscape:tiled-clone-of="#use851"
         xlink:href="#use851"
         transform="translate(0,77.239852)"
         id="use865" />
      <use
         style="stroke:#000000;stroke-opacity:0.7692308"
         height="100%"
         width="100%"
         x="0"
         y="0"
         inkscape:tiled-clone-of="#use851"
         xlink:href="#use851"
         transform="translate(0,102.98647)"
         id="use867" />
    </g>
    <use
       style="stroke:#000000;stroke-opacity:0.7692308"
       height="100%"
       width="100%"
       transform="translate(104.81798,118.08132)"
       id="use869"
       xlink:href="#use859"
       inkscape:tiled-clone-of="#use859"
       y="0"
       x="0" />
    <g
       style="stroke:#000000;stroke-opacity:0.7692308"
       transform="translate(41.506967,79.149769)"
       id="g894">
      <use
         style="stroke:#000000;stroke-opacity:0.7692308"
         x="0"
         y="0"
         inkscape:tiled-clone-of="#use851"
         xlink:href="#use851"
         id="use859"
         transform="translate(49.892857,10.96131)"
         width="100%"
         height="100%"
         inkscape:tile-cx="121.14137"
         inkscape:tile-cy="44.790179"
         inkscape:tile-w="17.152976"
         inkscape:tile-h="17.152976"
         inkscape:tile-x0="112.56488"
         inkscape:tile-y0="36.213691" />
      <use
         style="stroke:#000000;stroke-opacity:0.7692308"
         height="100%"
         width="100%"
         x="0"
         y="0"
         inkscape:tiled-clone-of="#use859"
         xlink:href="#use859"
         transform="translate(0,25.746617)"
         id="use871" />
      <use
         style="stroke:#000000;stroke-opacity:0.7692308"
         height="100%"
         width="100%"
         x="0"
         y="0"
         inkscape:tiled-clone-of="#use859"
         xlink:href="#use859"
         transform="translate(0,51.493234)"
         id="use873" />
      <use
         style="stroke:#000000;stroke-opacity:0.7692308"
         height="100%"
         width="100%"
         x="0"
         y="0"
         inkscape:tiled-clone-of="#use859"
         xlink:href="#use859"
         transform="translate(0,77.239852)"
         id="use875" />
    </g>
    <g
       style="stroke:#000000;stroke-opacity:0.29554659"
       id="g2087"
       transform="translate(4.2763124,75.370007)">
      <path
         style="fill:none;stroke:#000000;stroke-width:0.26458299px;stroke-linecap:butt;stroke-linejoin:miter;stroke-opacity:0.29554659"
         d="M 84.72444,36.348656 36.883194,48.108515 84.991709,61.739261 37.150463,74.568197 84.457169,87.129865 37.150463,100.49334 84.72444,112.52047 36.883194,126.41848 84.72444,138.17835"
         id="path898"
         inkscape:connector-curvature="0" />
      <path
         style="fill:none;stroke:#000000;stroke-width:0.26458299px;stroke-linecap:butt;stroke-linejoin:miter;stroke-opacity:0.29554659"
         d="M 84.72444,36.348656 37.150463,74.568197 84.72444,138.17835"
         id="path918"
         inkscape:connector-curvature="0" />
      <path
         style="fill:none;stroke:#000000;stroke-width:0.26458299px;stroke-linecap:butt;stroke-linejoin:miter;stroke-opacity:0.29554659"
         d="M 84.991709,61.739261 37.150463,100.49334 84.72444,138.17835"
         id="path920"
         inkscape:connector-curvature="0" />
      <path
         style="fill:none;stroke:#000000;stroke-width:0.26458299px;stroke-linecap:butt;stroke-linejoin:miter;stroke-opacity:0.29554659"
         d="M 36.883194,126.41848 84.457169,87.129865 36.883194,48.108515"
         id="path922"
         inkscape:connector-curvature="0" />
      <path
         style="fill:none;stroke:#000000;stroke-width:0.26458299px;stroke-linecap:butt;stroke-linejoin:miter;stroke-opacity:0.29554659"
         d="M 84.991709,61.739261 36.883194,126.41848"
         id="path924"
         inkscape:connector-curvature="0" />
      <path
         style="fill:none;stroke:#000000;stroke-width:0.26458299px;stroke-linecap:butt;stroke-linejoin:miter;stroke-opacity:0.29554659"
         d="M 36.883194,126.41848 84.72444,36.348656 37.150463,100.49334"
         id="path926"
         inkscape:connector-curvature="0" />
      <path
         style="fill:none;stroke:#000000;stroke-width:0.26458299px;stroke-linecap:butt;stroke-linejoin:miter;stroke-opacity:0.29554659"
         d="M 37.150463,74.568197 84.72444,112.52047 36.883194,48.108515"
         id="path928"
         inkscape:connector-curvature="0" />
      <path
         style="fill:none;stroke:#000000;stroke-width:0.26458299px;stroke-linecap:butt;stroke-linejoin:miter;stroke-opacity:0.29554659"
         d="M 84.72444,138.17835 36.883194,48.108515"
         id="path930"
         inkscape:connector-curvature="0" />
    </g>
    <g
       style="stroke:#000000;stroke-opacity:0.29554659"
       transform="rotate(180,95.477252,125.043)"
       id="g2105">
      <path
         inkscape:connector-curvature="0"
         id="path2089"
         d="M 84.72444,36.348656 36.883194,48.108515 84.991709,61.739261 37.150463,74.568197 84.457169,87.129865 37.150463,100.49334 84.72444,112.52047 36.883194,126.41848 84.72444,138.17835"
         style="fill:none;stroke:#000000;stroke-width:0.26458299px;stroke-linecap:butt;stroke-linejoin:miter;stroke-opacity:0.29554659" />
      <path
         inkscape:connector-curvature="0"
         id="path2091"
         d="M 84.72444,36.348656 37.150463,74.568197 84.72444,138.17835"
         style="fill:none;stroke:#000000;stroke-width:0.26458299px;stroke-linecap:butt;stroke-linejoin:miter;stroke-opacity:0.29554659" />
      <path
         inkscape:connector-curvature="0"
         id="path2093"
         d="M 84.991709,61.739261 37.150463,100.49334 84.72444,138.17835"
         style="fill:none;stroke:#000000;stroke-width:0.26458299px;stroke-linecap:butt;stroke-linejoin:miter;stroke-opacity:0.29554659" />
      <path
         inkscape:connector-curvature="0"
         id="path2095"
         d="M 36.883194,126.41848 84.457169,87.129865 36.883194,48.108515"
         style="fill:none;stroke:#000000;stroke-width:0.26458299px;stroke-linecap:butt;stroke-linejoin:miter;stroke-opacity:0.29554659" />
      <path
         inkscape:connector-curvature="0"
         id="path2097"
         d="M 84.991709,61.739261 36.883194,126.41848"
         style="fill:none;stroke:#000000;stroke-width:0.26458299px;stroke-linecap:butt;stroke-linejoin:miter;stroke-opacity:0.29554659" />
      <path
         inkscape:connector-curvature="0"
         id="path2099"
         d="M 36.883194,126.41848 84.72444,36.348656 37.150463,100.49334"
         style="fill:none;stroke:#000000;stroke-width:0.26458299px;stroke-linecap:butt;stroke-linejoin:miter;stroke-opacity:0.29554659" />
      <path
         inkscape:connector-curvature="0"
         id="path2101"
         d="M 37.150463,74.568197 84.72444,112.52047 36.883194,48.108515"
         style="fill:none;stroke:#000000;stroke-width:0.26458299px;stroke-linecap:butt;stroke-linejoin:miter;stroke-opacity:0.29554659" />
      <path
         inkscape:connector-curvature="0"
         id="path2103"
         d="M 84.72444,138.17835 36.883194,48.108515"
         style="fill:none;stroke:#000000;stroke-width:0.26458299px;stroke-linecap:butt;stroke-linejoin:miter;stroke-opacity:0.29554659" />
    </g>
    <g
       style="stroke:#000000;stroke-opacity:0.29959513"
       id="g2113"
       transform="translate(4.2763124,75.370007)">
      <path
         style="fill:none;stroke:#000000;stroke-width:0.26458299px;stroke-linecap:butt;stroke-linejoin:miter;stroke-opacity:0.29959513"
         d="M 166.6875,49.892857 212.80059,86.178571 166.30952,75.21726"
         id="path2107"
         inkscape:connector-curvature="0" />
      <path
         style="fill:none;stroke:#000000;stroke-width:0.26458299px;stroke-linecap:butt;stroke-linejoin:miter;stroke-opacity:0.29959513"
         d="M 166.49851,99.596725 212.80059,86.178569 166.49851,124.92113"
         id="path2109"
         inkscape:connector-curvature="0" />
    </g>
    <g
       id="g2681"
       ns0:preamble=""
       ns0:text="Input"
       transform="translate(-203.07898,-42.738564)">
      <defs
         id="defs2666">
        <g
           id="g2664">
          <symbol
             id="textext-044ca1f3-0"
             overflow="visible"
             style="overflow:visible">
            <path
               id="path2646"
               d=""
               style="stroke:none"
               inkscape:connector-curvature="0" />
          </symbol>
          <symbol
             id="textext-044ca1f3-1"
             overflow="visible"
             style="overflow:visible">
            <path
               id="path2649"
               d="M 2.25,-6.03125 C 2.25,-6.390625 2.265625,-6.5 3.0625,-6.5 h 0.25 v -0.3125 c -0.34375,0.03125 -1.125,0.03125 -1.515625,0.03125 -0.375,0 -1.171875,0 -1.515625,-0.03125 V -6.5 h 0.25 c 0.796875,0 0.828125,0.109375 0.828125,0.46875 v 5.25 c 0,0.359375 -0.03125,0.46875 -0.828125,0.46875 h -0.25 V 0 c 0.34375,-0.03125 1.140625,-0.03125 1.515625,-0.03125 0.390625,0 1.171875,0 1.515625,0.03125 v -0.3125 h -0.25 C 2.265625,-0.3125 2.25,-0.421875 2.25,-0.78125 Z m 0,0"
               style="stroke:none"
               inkscape:connector-curvature="0" />
          </symbol>
          <symbol
             id="textext-044ca1f3-2"
             overflow="visible"
             style="overflow:visible">
            <path
               id="path2652"
               d="M 1.09375,-3.421875 V -0.75 c 0,0.4375 -0.109375,0.4375 -0.78125,0.4375 V 0 c 0.359375,-0.015625 0.859375,-0.03125 1.140625,-0.03125 0.25,0 0.765625,0.015625 1.109375,0.03125 v -0.3125 c -0.671875,0 -0.78125,0 -0.78125,-0.4375 V -2.59375 C 1.78125,-3.625 2.5,-4.1875 3.125,-4.1875 c 0.640625,0 0.75,0.53125 0.75,1.109375 V -0.75 c 0,0.4375 -0.109375,0.4375 -0.78125,0.4375 V 0 c 0.34375,-0.015625 0.859375,-0.03125 1.125,-0.03125 0.25,0 0.78125,0.015625 1.109375,0.03125 v -0.3125 c -0.515625,0 -0.765625,0 -0.765625,-0.296875 v -1.90625 c 0,-0.859375 0,-1.15625 -0.3125,-1.515625 -0.140625,-0.171875 -0.46875,-0.375 -1.046875,-0.375 C 2.46875,-4.40625 2,-3.984375 1.71875,-3.359375 V -4.40625 L 0.3125,-4.296875 v 0.3125 c 0.703125,0 0.78125,0.0625 0.78125,0.5625 z m 0,0"
               style="stroke:none"
               inkscape:connector-curvature="0" />
          </symbol>
          <symbol
             id="textext-044ca1f3-3"
             overflow="visible"
             style="overflow:visible">
            <path
               id="path2655"
               d="m 1.71875,-3.75 v -0.65625 l -1.4375,0.109375 v 0.3125 c 0.703125,0 0.78125,0.0625 0.78125,0.5 v 4.65625 C 1.0625,1.625 0.953125,1.625 0.28125,1.625 V 1.9375 C 0.625,1.921875 1.140625,1.90625 1.390625,1.90625 c 0.28125,0 0.78125,0.015625 1.125,0.03125 V 1.625 C 1.859375,1.625 1.75,1.625 1.75,1.171875 V -0.59375 c 0.046875,0.171875 0.46875,0.703125 1.21875,0.703125 1.1875,0 2.21875,-0.984375 2.21875,-2.265625 0,-1.265625 -0.953125,-2.25 -2.078125,-2.25 -0.78125,0 -1.203125,0.4375 -1.390625,0.65625 z M 1.75,-1.140625 v -2.21875 C 2.03125,-3.875 2.515625,-4.15625 3.03125,-4.15625 c 0.734375,0 1.328125,0.875 1.328125,2 0,1.203125 -0.6875,2.046875 -1.421875,2.046875 -0.40625,0 -0.78125,-0.203125 -1.046875,-0.609375 C 1.75,-0.921875 1.75,-0.9375 1.75,-1.140625 Z m 0,0"
               style="stroke:none"
               inkscape:connector-curvature="0" />
          </symbol>
          <symbol
             id="textext-044ca1f3-4"
             overflow="visible"
             style="overflow:visible">
            <path
               id="path2658"
               d="M 3.890625,-0.78125 V 0.109375 L 5.328125,0 V -0.3125 C 4.640625,-0.3125 4.5625,-0.375 4.5625,-0.875 v -3.53125 l -1.46875,0.109375 v 0.3125 c 0.6875,0 0.78125,0.0625 0.78125,0.5625 v 1.765625 c 0,0.875 -0.484375,1.546875 -1.21875,1.546875 -0.828125,0 -0.875,-0.46875 -0.875,-0.984375 v -3.3125 L 0.3125,-4.296875 v 0.3125 c 0.78125,0 0.78125,0.03125 0.78125,0.90625 v 1.5 c 0,0.78125 0,1.6875 1.515625,1.6875 0.5625,0 1,-0.28125 1.28125,-0.890625 z m 0,0"
               style="stroke:none"
               inkscape:connector-curvature="0" />
          </symbol>
          <symbol
             id="textext-044ca1f3-5"
             overflow="visible"
             style="overflow:visible">
            <path
               id="path2661"
               d="m 1.71875,-3.984375 h 1.4375 v -0.3125 H 1.71875 V -6.125 h -0.25 c 0,0.8125 -0.296875,1.875 -1.28125,1.921875 v 0.21875 h 0.84375 v 2.75 c 0,1.21875 0.9375,1.34375 1.296875,1.34375 0.703125,0 0.984375,-0.703125 0.984375,-1.34375 v -0.5625 h -0.25 V -1.25 c 0,0.734375 -0.296875,1.109375 -0.671875,1.109375 -0.671875,0 -0.671875,-0.90625 -0.671875,-1.078125 z m 0,0"
               style="stroke:none"
               inkscape:connector-curvature="0" />
          </symbol>
        </g>
      </defs>
      <g
         id="textext-044ca1f3-6">
        <g
           id="g2678"
           style="fill:#000000;fill-opacity:1">
          <use
             id="use2668"
             y="134.765"
             x="223.43201"
             xlink:href="#textext-044ca1f3-1"
             width="100%"
             height="100%" />
          <use
             id="use2670"
             y="134.765"
             x="227.0295"
             xlink:href="#textext-044ca1f3-2"
             width="100%"
             height="100%" />
          <use
             id="use2672"
             y="134.765"
             x="232.56471"
             xlink:href="#textext-044ca1f3-3"
             width="100%"
             height="100%" />
          <use
             id="use2674"
             y="134.765"
             x="238.09993"
             xlink:href="#textext-044ca1f3-4"
             width="100%"
             height="100%" />
          <use
             id="use2676"
             y="134.765"
             x="243.63516"
             xlink:href="#textext-044ca1f3-5"
             width="100%"
             height="100%" />
        </g>
      </g>
    </g>
    <g
       id="g2816"
       ns0:preamble=""
       ns0:text="Hidden 1"
       transform="translate(-144.63868,-42.849271)">
      <defs
         id="defs2795">
        <g
           id="g2793">
          <symbol
             id="textext-70157564-0"
             overflow="visible"
             style="overflow:visible">
            <path
               id="path2772"
               d=""
               style="stroke:none"
               inkscape:connector-curvature="0" />
          </symbol>
          <symbol
             id="textext-70157564-1"
             overflow="visible"
             style="overflow:visible">
            <path
               id="path2775"
               d="M 6.109375,-6.03125 C 6.109375,-6.390625 6.125,-6.5 6.890625,-6.5 h 0.25 v -0.3125 c -0.359375,0.03125 -1.09375,0.03125 -1.46875,0.03125 -0.375,0 -1.125,0 -1.46875,-0.03125 V -6.5 H 4.4375 c 0.765625,0 0.78125,0.109375 0.78125,0.46875 v 2.328125 H 2.25 V -6.03125 C 2.25,-6.390625 2.265625,-6.5 3.03125,-6.5 h 0.234375 v -0.3125 c -0.34375,0.03125 -1.078125,0.03125 -1.46875,0.03125 -0.375,0 -1.125,0 -1.46875,-0.03125 V -6.5 H 0.5625 c 0.765625,0 0.796875,0.109375 0.796875,0.46875 v 5.25 c 0,0.359375 -0.03125,0.46875 -0.796875,0.46875 H 0.328125 V 0 c 0.34375,-0.03125 1.09375,-0.03125 1.46875,-0.03125 0.375,0 1.125,0 1.46875,0.03125 V -0.3125 H 3.03125 C 2.265625,-0.3125 2.25,-0.421875 2.25,-0.78125 v -2.609375 h 2.96875 v 2.609375 c 0,0.359375 -0.015625,0.46875 -0.78125,0.46875 H 4.203125 V 0 c 0.34375,-0.03125 1.078125,-0.03125 1.453125,-0.03125 0.390625,0 1.125,0 1.484375,0.03125 v -0.3125 h -0.25 c -0.765625,0 -0.78125,-0.109375 -0.78125,-0.46875 z m 0,0"
               style="stroke:none"
               inkscape:connector-curvature="0" />
          </symbol>
          <symbol
             id="textext-70157564-2"
             overflow="visible"
             style="overflow:visible">
            <path
               id="path2778"
               d="M 1.765625,-4.40625 0.375,-4.296875 v 0.3125 c 0.640625,0 0.734375,0.0625 0.734375,0.546875 V -0.75 c 0,0.4375 -0.109375,0.4375 -0.78125,0.4375 V 0 C 0.640625,-0.015625 1.1875,-0.03125 1.421875,-0.03125 1.78125,-0.03125 2.125,-0.015625 2.46875,0 v -0.3125 c -0.671875,0 -0.703125,-0.046875 -0.703125,-0.4375 z m 0.03125,-1.734375 c 0,-0.3125 -0.234375,-0.53125 -0.515625,-0.53125 -0.3125,0 -0.53125,0.265625 -0.53125,0.53125 0,0.265625 0.21875,0.53125 0.53125,0.53125 0.28125,0 0.515625,-0.21875 0.515625,-0.53125 z m 0,0"
               style="stroke:none"
               inkscape:connector-curvature="0" />
          </symbol>
          <symbol
             id="textext-70157564-3"
             overflow="visible"
             style="overflow:visible">
            <path
               id="path2781"
               d="m 3.78125,-0.546875 v 0.65625 L 5.25,0 v -0.3125 c -0.6875,0 -0.78125,-0.0625 -0.78125,-0.5625 V -6.921875 L 3.046875,-6.8125 V -6.5 c 0.6875,0 0.765625,0.0625 0.765625,0.5625 v 2.15625 c -0.28125,-0.359375 -0.71875,-0.625 -1.25,-0.625 -1.171875,0 -2.21875,0.984375 -2.21875,2.265625 0,1.265625 0.96875,2.25 2.109375,2.25 0.640625,0 1.078125,-0.34375 1.328125,-0.65625 z m 0,-2.671875 v 2.046875 c 0,0.171875 0,0.1875 -0.109375,0.359375 C 3.375,-0.328125 2.9375,-0.109375 2.5,-0.109375 2.046875,-0.109375 1.6875,-0.375 1.453125,-0.75 1.203125,-1.15625 1.171875,-1.71875 1.171875,-2.140625 1.171875,-2.5 1.1875,-3.09375 1.46875,-3.546875 1.6875,-3.859375 2.0625,-4.1875 2.609375,-4.1875 c 0.34375,0 0.765625,0.15625 1.0625,0.59375 0.109375,0.171875 0.109375,0.1875 0.109375,0.375 z m 0,0"
               style="stroke:none"
               inkscape:connector-curvature="0" />
          </symbol>
          <symbol
             id="textext-70157564-4"
             overflow="visible"
             style="overflow:visible">
            <path
               id="path2784"
               d="M 1.109375,-2.515625 C 1.171875,-4 2.015625,-4.25 2.359375,-4.25 c 1.015625,0 1.125,1.34375 1.125,1.734375 z m 0,0.21875 h 2.78125 c 0.21875,0 0.25,0 0.25,-0.21875 0,-0.984375 -0.546875,-1.953125 -1.78125,-1.953125 -1.15625,0 -2.078125,1.03125 -2.078125,2.28125 0,1.328125 1.046875,2.296875 2.1875,2.296875 C 3.6875,0.109375 4.140625,-1 4.140625,-1.1875 4.140625,-1.28125 4.0625,-1.3125 4,-1.3125 c -0.078125,0 -0.109375,0.0625 -0.125,0.140625 -0.34375,1.03125 -1.25,1.03125 -1.34375,1.03125 -0.5,0 -0.890625,-0.296875 -1.125,-0.671875 -0.296875,-0.46875 -0.296875,-1.125 -0.296875,-1.484375 z m 0,0"
               style="stroke:none"
               inkscape:connector-curvature="0" />
          </symbol>
          <symbol
             id="textext-70157564-5"
             overflow="visible"
             style="overflow:visible">
            <path
               id="path2787"
               d="M 1.09375,-3.421875 V -0.75 c 0,0.4375 -0.109375,0.4375 -0.78125,0.4375 V 0 c 0.359375,-0.015625 0.859375,-0.03125 1.140625,-0.03125 0.25,0 0.765625,0.015625 1.109375,0.03125 v -0.3125 c -0.671875,0 -0.78125,0 -0.78125,-0.4375 V -2.59375 C 1.78125,-3.625 2.5,-4.1875 3.125,-4.1875 c 0.640625,0 0.75,0.53125 0.75,1.109375 V -0.75 c 0,0.4375 -0.109375,0.4375 -0.78125,0.4375 V 0 c 0.34375,-0.015625 0.859375,-0.03125 1.125,-0.03125 0.25,0 0.78125,0.015625 1.109375,0.03125 v -0.3125 c -0.515625,0 -0.765625,0 -0.765625,-0.296875 v -1.90625 c 0,-0.859375 0,-1.15625 -0.3125,-1.515625 -0.140625,-0.171875 -0.46875,-0.375 -1.046875,-0.375 C 2.46875,-4.40625 2,-3.984375 1.71875,-3.359375 V -4.40625 L 0.3125,-4.296875 v 0.3125 c 0.703125,0 0.78125,0.0625 0.78125,0.5625 z m 0,0"
               style="stroke:none"
               inkscape:connector-curvature="0" />
          </symbol>
          <symbol
             id="textext-70157564-6"
             overflow="visible"
             style="overflow:visible">
            <path
               id="path2790"
               d="m 2.9375,-6.375 c 0,-0.25 0,-0.265625 -0.234375,-0.265625 C 2.078125,-6 1.203125,-6 0.890625,-6 v 0.3125 c 0.203125,0 0.78125,0 1.296875,-0.265625 v 5.171875 c 0,0.359375 -0.03125,0.46875 -0.921875,0.46875 h -0.3125 V 0 c 0.34375,-0.03125 1.203125,-0.03125 1.609375,-0.03125 0.390625,0 1.265625,0 1.609375,0.03125 v -0.3125 h -0.3125 c -0.90625,0 -0.921875,-0.109375 -0.921875,-0.46875 z m 0,0"
               style="stroke:none"
               inkscape:connector-curvature="0" />
          </symbol>
        </g>
      </defs>
      <g
         id="textext-70157564-7">
        <g
           id="g2809"
           style="fill:#000000;fill-opacity:1">
          <use
             id="use2797"
             y="134.765"
             x="223.43201"
             xlink:href="#textext-70157564-1"
             width="100%"
             height="100%" />
          <use
             id="use2799"
             y="134.765"
             x="230.90395"
             xlink:href="#textext-70157564-2"
             width="100%"
             height="100%" />
          <use
             id="use2801"
             y="134.765"
             x="233.67155"
             xlink:href="#textext-70157564-3"
             width="100%"
             height="100%" />
          <use
             id="use2803"
             y="134.765"
             x="239.20679"
             xlink:href="#textext-70157564-3"
             width="100%"
             height="100%" />
          <use
             id="use2805"
             y="134.765"
             x="244.742"
             xlink:href="#textext-70157564-4"
             width="100%"
             height="100%" />
          <use
             id="use2807"
             y="134.765"
             x="249.16939"
             xlink:href="#textext-70157564-5"
             width="100%"
             height="100%" />
        </g>
        <g
           id="g2813"
           style="fill:#000000;fill-opacity:1">
          <use
             id="use2811"
             y="134.765"
             x="258.02216"
             xlink:href="#textext-70157564-6"
             width="100%"
             height="100%" />
        </g>
      </g>
    </g>
    <g
       id="g2983"
       ns0:preamble=""
       ns0:text="Hidden 2"
       transform="translate(-79.111781,-42.471294)">
      <defs
         id="defs2962">
        <g
           id="g2960">
          <symbol
             id="textext-8ba59214-0"
             overflow="visible"
             style="overflow:visible">
            <path
               id="path2939"
               d=""
               style="stroke:none"
               inkscape:connector-curvature="0" />
          </symbol>
          <symbol
             id="textext-8ba59214-1"
             overflow="visible"
             style="overflow:visible">
            <path
               id="path2942"
               d="M 6.109375,-6.03125 C 6.109375,-6.390625 6.125,-6.5 6.890625,-6.5 h 0.25 v -0.3125 c -0.359375,0.03125 -1.09375,0.03125 -1.46875,0.03125 -0.375,0 -1.125,0 -1.46875,-0.03125 V -6.5 H 4.4375 c 0.765625,0 0.78125,0.109375 0.78125,0.46875 v 2.328125 H 2.25 V -6.03125 C 2.25,-6.390625 2.265625,-6.5 3.03125,-6.5 h 0.234375 v -0.3125 c -0.34375,0.03125 -1.078125,0.03125 -1.46875,0.03125 -0.375,0 -1.125,0 -1.46875,-0.03125 V -6.5 H 0.5625 c 0.765625,0 0.796875,0.109375 0.796875,0.46875 v 5.25 c 0,0.359375 -0.03125,0.46875 -0.796875,0.46875 H 0.328125 V 0 c 0.34375,-0.03125 1.09375,-0.03125 1.46875,-0.03125 0.375,0 1.125,0 1.46875,0.03125 V -0.3125 H 3.03125 C 2.265625,-0.3125 2.25,-0.421875 2.25,-0.78125 v -2.609375 h 2.96875 v 2.609375 c 0,0.359375 -0.015625,0.46875 -0.78125,0.46875 H 4.203125 V 0 c 0.34375,-0.03125 1.078125,-0.03125 1.453125,-0.03125 0.390625,0 1.125,0 1.484375,0.03125 v -0.3125 h -0.25 c -0.765625,0 -0.78125,-0.109375 -0.78125,-0.46875 z m 0,0"
               style="stroke:none"
               inkscape:connector-curvature="0" />
          </symbol>
          <symbol
             id="textext-8ba59214-2"
             overflow="visible"
             style="overflow:visible">
            <path
               id="path2945"
               d="M 1.765625,-4.40625 0.375,-4.296875 v 0.3125 c 0.640625,0 0.734375,0.0625 0.734375,0.546875 V -0.75 c 0,0.4375 -0.109375,0.4375 -0.78125,0.4375 V 0 C 0.640625,-0.015625 1.1875,-0.03125 1.421875,-0.03125 1.78125,-0.03125 2.125,-0.015625 2.46875,0 v -0.3125 c -0.671875,0 -0.703125,-0.046875 -0.703125,-0.4375 z m 0.03125,-1.734375 c 0,-0.3125 -0.234375,-0.53125 -0.515625,-0.53125 -0.3125,0 -0.53125,0.265625 -0.53125,0.53125 0,0.265625 0.21875,0.53125 0.53125,0.53125 0.28125,0 0.515625,-0.21875 0.515625,-0.53125 z m 0,0"
               style="stroke:none"
               inkscape:connector-curvature="0" />
          </symbol>
          <symbol
             id="textext-8ba59214-3"
             overflow="visible"
             style="overflow:visible">
            <path
               id="path2948"
               d="m 3.78125,-0.546875 v 0.65625 L 5.25,0 v -0.3125 c -0.6875,0 -0.78125,-0.0625 -0.78125,-0.5625 V -6.921875 L 3.046875,-6.8125 V -6.5 c 0.6875,0 0.765625,0.0625 0.765625,0.5625 v 2.15625 c -0.28125,-0.359375 -0.71875,-0.625 -1.25,-0.625 -1.171875,0 -2.21875,0.984375 -2.21875,2.265625 0,1.265625 0.96875,2.25 2.109375,2.25 0.640625,0 1.078125,-0.34375 1.328125,-0.65625 z m 0,-2.671875 v 2.046875 c 0,0.171875 0,0.1875 -0.109375,0.359375 C 3.375,-0.328125 2.9375,-0.109375 2.5,-0.109375 2.046875,-0.109375 1.6875,-0.375 1.453125,-0.75 1.203125,-1.15625 1.171875,-1.71875 1.171875,-2.140625 1.171875,-2.5 1.1875,-3.09375 1.46875,-3.546875 1.6875,-3.859375 2.0625,-4.1875 2.609375,-4.1875 c 0.34375,0 0.765625,0.15625 1.0625,0.59375 0.109375,0.171875 0.109375,0.1875 0.109375,0.375 z m 0,0"
               style="stroke:none"
               inkscape:connector-curvature="0" />
          </symbol>
          <symbol
             id="textext-8ba59214-4"
             overflow="visible"
             style="overflow:visible">
            <path
               id="path2951"
               d="M 1.109375,-2.515625 C 1.171875,-4 2.015625,-4.25 2.359375,-4.25 c 1.015625,0 1.125,1.34375 1.125,1.734375 z m 0,0.21875 h 2.78125 c 0.21875,0 0.25,0 0.25,-0.21875 0,-0.984375 -0.546875,-1.953125 -1.78125,-1.953125 -1.15625,0 -2.078125,1.03125 -2.078125,2.28125 0,1.328125 1.046875,2.296875 2.1875,2.296875 C 3.6875,0.109375 4.140625,-1 4.140625,-1.1875 4.140625,-1.28125 4.0625,-1.3125 4,-1.3125 c -0.078125,0 -0.109375,0.0625 -0.125,0.140625 -0.34375,1.03125 -1.25,1.03125 -1.34375,1.03125 -0.5,0 -0.890625,-0.296875 -1.125,-0.671875 -0.296875,-0.46875 -0.296875,-1.125 -0.296875,-1.484375 z m 0,0"
               style="stroke:none"
               inkscape:connector-curvature="0" />
          </symbol>
          <symbol
             id="textext-8ba59214-5"
             overflow="visible"
             style="overflow:visible">
            <path
               id="path2954"
               d="M 1.09375,-3.421875 V -0.75 c 0,0.4375 -0.109375,0.4375 -0.78125,0.4375 V 0 c 0.359375,-0.015625 0.859375,-0.03125 1.140625,-0.03125 0.25,0 0.765625,0.015625 1.109375,0.03125 v -0.3125 c -0.671875,0 -0.78125,0 -0.78125,-0.4375 V -2.59375 C 1.78125,-3.625 2.5,-4.1875 3.125,-4.1875 c 0.640625,0 0.75,0.53125 0.75,1.109375 V -0.75 c 0,0.4375 -0.109375,0.4375 -0.78125,0.4375 V 0 c 0.34375,-0.015625 0.859375,-0.03125 1.125,-0.03125 0.25,0 0.78125,0.015625 1.109375,0.03125 v -0.3125 c -0.515625,0 -0.765625,0 -0.765625,-0.296875 v -1.90625 c 0,-0.859375 0,-1.15625 -0.3125,-1.515625 -0.140625,-0.171875 -0.46875,-0.375 -1.046875,-0.375 C 2.46875,-4.40625 2,-3.984375 1.71875,-3.359375 V -4.40625 L 0.3125,-4.296875 v 0.3125 c 0.703125,0 0.78125,0.0625 0.78125,0.5625 z m 0,0"
               style="stroke:none"
               inkscape:connector-curvature="0" />
          </symbol>
          <symbol
             id="textext-8ba59214-6"
             overflow="visible"
             style="overflow:visible">
            <path
               id="path2957"
               d="m 1.265625,-0.765625 1.0625,-1.03125 c 1.546875,-1.375 2.140625,-1.90625 2.140625,-2.90625 0,-1.140625 -0.890625,-1.9375 -2.109375,-1.9375 -1.125,0 -1.859375,0.921875 -1.859375,1.8125 0,0.546875 0.5,0.546875 0.53125,0.546875 0.171875,0 0.515625,-0.109375 0.515625,-0.53125 0,-0.25 -0.1875,-0.515625 -0.53125,-0.515625 -0.078125,0 -0.09375,0 -0.125,0.015625 0.21875,-0.65625 0.765625,-1.015625 1.34375,-1.015625 0.90625,0 1.328125,0.8125 1.328125,1.625 C 3.5625,-3.90625 3.078125,-3.125 2.515625,-2.5 l -1.90625,2.125 C 0.5,-0.265625 0.5,-0.234375 0.5,0 H 4.203125 L 4.46875,-1.734375 H 4.234375 C 4.171875,-1.4375 4.109375,-1 4,-0.84375 3.9375,-0.765625 3.28125,-0.765625 3.0625,-0.765625 Z m 0,0"
               style="stroke:none"
               inkscape:connector-curvature="0" />
          </symbol>
        </g>
      </defs>
      <g
         id="textext-8ba59214-7">
        <g
           id="g2976"
           style="fill:#000000;fill-opacity:1">
          <use
             id="use2964"
             y="134.765"
             x="223.43201"
             xlink:href="#textext-8ba59214-1"
             width="100%"
             height="100%" />
          <use
             id="use2966"
             y="134.765"
             x="230.90395"
             xlink:href="#textext-8ba59214-2"
             width="100%"
             height="100%" />
          <use
             id="use2968"
             y="134.765"
             x="233.67155"
             xlink:href="#textext-8ba59214-3"
             width="100%"
             height="100%" />
          <use
             id="use2970"
             y="134.765"
             x="239.20679"
             xlink:href="#textext-8ba59214-3"
             width="100%"
             height="100%" />
          <use
             id="use2972"
             y="134.765"
             x="244.742"
             xlink:href="#textext-8ba59214-4"
             width="100%"
             height="100%" />
          <use
             id="use2974"
             y="134.765"
             x="249.16939"
             xlink:href="#textext-8ba59214-5"
             width="100%"
             height="100%" />
        </g>
        <g
           id="g2980"
           style="fill:#000000;fill-opacity:1">
          <use
             id="use2978"
             y="134.765"
             x="258.02216"
             xlink:href="#textext-8ba59214-6"
             width="100%"
             height="100%" />
        </g>
      </g>
    </g>
    <g
       id="g3167"
       ns0:preamble=""
       ns0:text="Output"
       transform="translate(-17.261813,-42.959977)">
      <defs
         id="defs3150">
        <g
           id="g3148">
          <symbol
             id="textext-35ec8081-0"
             overflow="visible"
             style="overflow:visible">
            <path
               id="path3133"
               d=""
               style="stroke:none"
               inkscape:connector-curvature="0" />
          </symbol>
          <symbol
             id="textext-35ec8081-1"
             overflow="visible"
             style="overflow:visible">
            <path
               id="path3136"
               d="m 7.1875,-3.375 c 0,-2.03125 -1.5,-3.65625 -3.3125,-3.65625 -1.796875,0 -3.3125,1.59375 -3.3125,3.65625 0,2.046875 1.53125,3.59375 3.3125,3.59375 1.8125,0 3.3125,-1.578125 3.3125,-3.59375 z M 3.875,-0.046875 c -0.953125,0 -2.296875,-0.875 -2.296875,-3.46875 0,-2.578125 1.46875,-3.265625 2.296875,-3.265625 0.859375,0 2.28125,0.703125 2.28125,3.265625 0,2.640625 -1.359375,3.46875 -2.28125,3.46875 z m 0,0"
               style="stroke:none"
               inkscape:connector-curvature="0" />
          </symbol>
          <symbol
             id="textext-35ec8081-2"
             overflow="visible"
             style="overflow:visible">
            <path
               id="path3139"
               d="M 3.890625,-0.78125 V 0.109375 L 5.328125,0 V -0.3125 C 4.640625,-0.3125 4.5625,-0.375 4.5625,-0.875 v -3.53125 l -1.46875,0.109375 v 0.3125 c 0.6875,0 0.78125,0.0625 0.78125,0.5625 v 1.765625 c 0,0.875 -0.484375,1.546875 -1.21875,1.546875 -0.828125,0 -0.875,-0.46875 -0.875,-0.984375 v -3.3125 L 0.3125,-4.296875 v 0.3125 c 0.78125,0 0.78125,0.03125 0.78125,0.90625 v 1.5 c 0,0.78125 0,1.6875 1.515625,1.6875 0.5625,0 1,-0.28125 1.28125,-0.890625 z m 0,0"
               style="stroke:none"
               inkscape:connector-curvature="0" />
          </symbol>
          <symbol
             id="textext-35ec8081-3"
             overflow="visible"
             style="overflow:visible">
            <path
               id="path3142"
               d="m 1.71875,-3.984375 h 1.4375 v -0.3125 H 1.71875 V -6.125 h -0.25 c 0,0.8125 -0.296875,1.875 -1.28125,1.921875 v 0.21875 h 0.84375 v 2.75 c 0,1.21875 0.9375,1.34375 1.296875,1.34375 0.703125,0 0.984375,-0.703125 0.984375,-1.34375 v -0.5625 h -0.25 V -1.25 c 0,0.734375 -0.296875,1.109375 -0.671875,1.109375 -0.671875,0 -0.671875,-0.90625 -0.671875,-1.078125 z m 0,0"
               style="stroke:none"
               inkscape:connector-curvature="0" />
          </symbol>
          <symbol
             id="textext-35ec8081-4"
             overflow="visible"
             style="overflow:visible">
            <path
               id="path3145"
               d="m 1.71875,-3.75 v -0.65625 l -1.4375,0.109375 v 0.3125 c 0.703125,0 0.78125,0.0625 0.78125,0.5 v 4.65625 C 1.0625,1.625 0.953125,1.625 0.28125,1.625 V 1.9375 C 0.625,1.921875 1.140625,1.90625 1.390625,1.90625 c 0.28125,0 0.78125,0.015625 1.125,0.03125 V 1.625 C 1.859375,1.625 1.75,1.625 1.75,1.171875 V -0.59375 c 0.046875,0.171875 0.46875,0.703125 1.21875,0.703125 1.1875,0 2.21875,-0.984375 2.21875,-2.265625 0,-1.265625 -0.953125,-2.25 -2.078125,-2.25 -0.78125,0 -1.203125,0.4375 -1.390625,0.65625 z M 1.75,-1.140625 v -2.21875 C 2.03125,-3.875 2.515625,-4.15625 3.03125,-4.15625 c 0.734375,0 1.328125,0.875 1.328125,2 0,1.203125 -0.6875,2.046875 -1.421875,2.046875 -0.40625,0 -0.78125,-0.203125 -1.046875,-0.609375 C 1.75,-0.921875 1.75,-0.9375 1.75,-1.140625 Z m 0,0"
               style="stroke:none"
               inkscape:connector-curvature="0" />
          </symbol>
        </g>
      </defs>
      <g
         id="textext-35ec8081-5">
        <g
           id="g3164"
           style="fill:#000000;fill-opacity:1">
          <use
             id="use3152"
             y="134.765"
             x="223.43201"
             xlink:href="#textext-35ec8081-1"
             width="100%"
             height="100%" />
          <use
             id="use3154"
             y="134.765"
             x="231.18091"
             xlink:href="#textext-35ec8081-2"
             width="100%"
             height="100%" />
          <use
             id="use3156"
             y="134.765"
             x="236.71613"
             xlink:href="#textext-35ec8081-3"
             width="100%"
             height="100%" />
          <use
             id="use3158"
             y="134.765"
             x="240.59059"
             xlink:href="#textext-35ec8081-4"
             width="100%"
             height="100%" />
          <use
             id="use3160"
             y="134.765"
             x="246.12581"
             xlink:href="#textext-35ec8081-2"
             width="100%"
             height="100%" />
          <use
             id="use3162"
             y="134.765"
             x="251.66103"
             xlink:href="#textext-35ec8081-3"
             width="100%"
             height="100%" />
        </g>
      </g>
    </g>
    <g
       id="g3347"
       ns0:preamble=""
       ns0:text="$w$"
       transform="translate(-163.03441,-20.312484)"
       style="fill:#000000;fill-opacity:0.47761195">
      <defs
         id="defs3340">
        <g
           id="g3338">
          <symbol
             id="textext-b11ceaba-0"
             overflow="visible"
             style="overflow:visible">
            <path
               id="path3332"
               d=""
               style="stroke:none"
               inkscape:connector-curvature="0" />
          </symbol>
          <symbol
             id="textext-b11ceaba-1"
             overflow="visible"
             style="overflow:visible">
            <path
               id="path3335"
               d="M 4.609375,-3.375 C 4.65625,-3.59375 4.75,-3.96875 4.75,-4.03125 c 0,-0.171875 -0.140625,-0.265625 -0.28125,-0.265625 -0.125,0 -0.296875,0.078125 -0.375,0.28125 -0.03125,0.0625 -0.5,1.96875 -0.5625,2.234375 C 3.453125,-1.484375 3.4375,-1.3125 3.4375,-1.125 c 0,0.109375 0,0.125 0.015625,0.171875 -0.234375,0.53125 -0.53125,0.84375 -0.921875,0.84375 -0.796875,0 -0.796875,-0.734375 -0.796875,-0.90625 0,-0.3125 0.046875,-0.703125 0.515625,-1.9375 0.109375,-0.296875 0.171875,-0.4375 0.171875,-0.640625 0,-0.4375 -0.328125,-0.8125 -0.8125,-0.8125 -0.953125,0 -1.3125,1.453125 -1.3125,1.53125 0,0.109375 0.09375,0.109375 0.109375,0.109375 0.109375,0 0.109375,-0.03125 0.15625,-0.1875 C 0.84375,-3.875 1.21875,-4.1875 1.578125,-4.1875 c 0.09375,0 0.25,0.015625 0.25,0.328125 0,0.25 -0.109375,0.53125 -0.1875,0.703125 -0.4375,1.171875 -0.546875,1.625 -0.546875,2.015625 0,0.90625 0.65625,1.25 1.40625,1.25 0.171875,0 0.640625,0 1.03125,-0.703125 0.265625,0.640625 0.953125,0.703125 1.25,0.703125 0.75,0 1.1875,-0.625 1.453125,-1.21875 0.328125,-0.78125 0.65625,-2.125 0.65625,-2.59375 0,-0.546875 -0.265625,-0.703125 -0.4375,-0.703125 -0.25,0 -0.5,0.265625 -0.5,0.484375 0,0.125 0.0625,0.1875 0.140625,0.265625 0.109375,0.109375 0.359375,0.359375 0.359375,0.84375 0,0.34375 -0.28125,1.3125 -0.546875,1.828125 -0.25,0.53125 -0.609375,0.875 -1.09375,0.875 -0.46875,0 -0.734375,-0.296875 -0.734375,-0.875 0,-0.265625 0.0625,-0.578125 0.109375,-0.71875 z m 0,0"
               style="stroke:none"
               inkscape:connector-curvature="0" />
          </symbol>
        </g>
      </defs>
      <g
         id="textext-b11ceaba-2"
         style="fill:#000000;fill-opacity:0.47761195">
        <g
           id="g3344"
           style="fill:#000000;fill-opacity:0.47761195">
          <use
             id="use3342"
             y="134.765"
             x="223.43201"
             xlink:href="#textext-b11ceaba-1"
             width="100%"
             height="100%"
             style="fill:#000000;fill-opacity:0.47761195" />
        </g>
      </g>
    </g>
  </g>
</svg>
