<?xml version="1.0" encoding="UTF-8" standalone="no"?>
<!-- Created with Inkscape (http://www.inkscape.org/) -->

<svg
   xmlns:ns0="http://www.iki.fi/pav/software/textext/"
   xmlns:osb="http://www.openswatchbook.org/uri/2009/osb"
   xmlns:dc="http://purl.org/dc/elements/1.1/"
   xmlns:cc="http://creativecommons.org/ns#"
   xmlns:rdf="http://www.w3.org/1999/02/22-rdf-syntax-ns#"
   xmlns:svg="http://www.w3.org/2000/svg"
   xmlns="http://www.w3.org/2000/svg"
   xmlns:xlink="http://www.w3.org/1999/xlink"
   xmlns:sodipodi="http://sodipodi.sourceforge.net/DTD/sodipodi-0.dtd"
   xmlns:inkscape="http://www.inkscape.org/namespaces/inkscape"
   width="249mm"
   height="205mm"
   viewBox="0 0 249 205"
   version="1.1"
   id="svg3371"
   inkscape:version="0.92.4 (5da689c313, 2019-01-14)"
   sodipodi:docname="interferometer.svg">
  <defs
     id="defs3365">
    <linearGradient
       id="linearGradient3963"
       osb:paint="solid">
      <stop
         style="stop-color:#fff9ff;stop-opacity:1;"
         offset="0"
         id="stop3961" />
    </linearGradient>
    <filter
       inkscape:collect="always"
       style="color-interpolation-filters:sRGB"
       id="filter1069"
       x="-0.0053841787"
       width="1.0107684"
       y="-0.019096401"
       height="1.0381928">
      <feGaussianBlur
         inkscape:collect="always"
         stdDeviation="0.20902085"
         id="feGaussianBlur1071" />
    </filter>
    <filter
       inkscape:collect="always"
       style="color-interpolation-filters:sRGB"
       id="filter1233"
       x="-0.45502916"
       width="1.9100583"
       y="-0.043374795"
       height="1.0867496">
      <feGaussianBlur
         inkscape:collect="always"
         stdDeviation="1.379882"
         id="feGaussianBlur1235" />
    </filter>
  </defs>
  <sodipodi:namedview
     id="base"
     pagecolor="#ffffff"
     bordercolor="#666666"
     borderopacity="1.0"
     inkscape:pageopacity="0.0"
     inkscape:pageshadow="2"
     inkscape:zoom="1.4"
     inkscape:cx="426.34715"
     inkscape:cy="345.01108"
     inkscape:document-units="mm"
     inkscape:current-layer="g1291"
     showgrid="false"
     showguides="true"
     inkscape:guide-bbox="true"
     inkscape:window-width="1680"
     inkscape:window-height="1028"
     inkscape:window-x="-2"
     inkscape:window-y="0"
     inkscape:window-maximized="0">
    <sodipodi:guide
       inkscape:locked="false"
       id="guide3935"
       orientation="1,0"
       position="91.940717,194.57222" />
    <sodipodi:guide
       inkscape:locked="false"
       id="guide4383"
       orientation="0,1"
       position="-16.819941,81.453868" />
    <sodipodi:guide
       inkscape:locked="false"
       id="guide1015"
       orientation="-0.70710678,0.70710678"
       position="15.308036,122.1808" />
  </sodipodi:namedview>
  <metadata
     id="metadata3368">
    <rdf:RDF>
      <cc:Work
         rdf:about="">
        <dc:format>image/svg+xml</dc:format>
        <dc:type
           rdf:resource="http://purl.org/dc/dcmitype/StillImage" />
        <dc:title></dc:title>
      </cc:Work>
    </rdf:RDF>
  </metadata>
  <g
     inkscape:label="Layer 1"
     inkscape:groupmode="layer"
     id="layer1"
     transform="translate(0,-92)">
    <path
       inkscape:connector-curvature="0"
       id="path1239"
       d="m 36.096725,215.54613 h 55.843993 v -26.26935 26.26935 h 37.327142"
       style="opacity:1;fill:none;stroke:#ff0000;stroke-width:0.86500001;stroke-linecap:butt;stroke-linejoin:miter;stroke-miterlimit:4;stroke-dasharray:none;stroke-opacity:1;filter:url(#filter1069)"
       transform="matrix(0.99916286,0,0,-1.1624985,0.06921628,466.15717)" />
    <path
       inkscape:connector-curvature="0"
       id="path1237"
       d="m 146.1803,226.69642 v -76.1622 l 7.27803,-0.18898"
       style="fill:none;stroke:#ff0000;stroke-width:4.96500015;stroke-linecap:butt;stroke-linejoin:miter;stroke-miterlimit:4;stroke-dasharray:none;stroke-opacity:1;filter:url(#filter1233)"
       transform="rotate(90,143.29922,212.66506)" />
    <path
       style="fill:none;stroke:#ff0000;stroke-width:4.965;stroke-linecap:butt;stroke-linejoin:miter;stroke-miterlimit:4;stroke-dasharray:none;stroke-opacity:1;filter:url(#filter1233)"
       d="m 91.940717,189.27678 v -76.1622 l 7.278033,-0.18898"
       id="path1099"
       inkscape:connector-curvature="0" />
    <path
       style="fill:none;stroke:#ff0000;stroke-width:0.865;stroke-linecap:butt;stroke-linejoin:miter;stroke-opacity:1;stroke-miterlimit:4;stroke-dasharray:none;opacity:1;filter:url(#filter1069)"
       d="m 36.096725,215.54613 h 55.843993 v -26.26935 26.26935 h 37.327142"
       id="path1019"
       inkscape:connector-curvature="0" />
    <rect
       style="fill:#55ddff;fill-opacity:1;stroke:#55ddff;stroke-width:0.86500001;stroke-miterlimit:4;stroke-dasharray:none;stroke-opacity:1"
       id="rect3373"
       width="28.865108"
       height="7.4835467"
       x="77.775429"
       y="109.91133" />
    <rect
       y="185.54861"
       x="77.508156"
       height="7.4835467"
       width="28.865108"
       id="rect3921"
       style="fill:#55ddff;fill-opacity:1;stroke:#55ddff;stroke-width:0.86500001;stroke-miterlimit:4;stroke-dasharray:none;stroke-opacity:1" />
    <rect
       y="-208.47023"
       x="201.31754"
       height="7.4835467"
       width="28.865108"
       id="rect3923"
       style="fill:#55ddff;fill-opacity:1;stroke:#55ddff;stroke-width:0.86500001;stroke-miterlimit:4;stroke-dasharray:none;stroke-opacity:1"
       transform="rotate(90)" />
    <rect
       style="fill:#55ddff;fill-opacity:1;stroke:#55ddff;stroke-width:0.86500001;stroke-miterlimit:4;stroke-dasharray:none;stroke-opacity:1"
       id="rect3925"
       width="28.865108"
       height="7.4835467"
       x="201.05026"
       y="-132.83295"
       transform="rotate(90)" />
    <rect
       transform="matrix(-0.68631489,0.72730453,-0.68631489,-0.72730453,0,0)"
       y="-216.83788"
       x="61.845936"
       height="3.4399965"
       width="37.210369"
       id="rect3929"
       style="fill:#55ddff;fill-opacity:1;stroke:#55ddff;stroke-width:0.6658659;stroke-miterlimit:4;stroke-dasharray:none;stroke-opacity:1" />
    <rect
       style="fill:#000000;fill-opacity:1;stroke:#55ddff;stroke-width:0;stroke-miterlimit:4;stroke-dasharray:none;stroke-opacity:1"
       id="rect3931"
       width="22.45064"
       height="12.294398"
       x="14.014286"
       y="209.10075" />
    <rect
       style="opacity:1;stroke:#ff0000;stroke-width:0;stroke-miterlimit:4;stroke-dasharray:none;stroke-opacity:1"
       id="rect1241"
       width="11.717261"
       height="11.528274"
       x="86.178574"
       y="245.78421" />
    <g
       id="g1291"
       ns0:preamble=""
       ns0:text="ITM"
       transform="translate(-170.65625,58.208333)">
      <defs
         id="defs1280">
        <g
           id="g1278">
          <symbol
             id="textext-a78fdd5e-0"
             overflow="visible"
             style="overflow:visible">
            <path
               id="path1266"
               d=""
               style="stroke:none"
               inkscape:connector-curvature="0" />
          </symbol>
          <symbol
             id="textext-a78fdd5e-1"
             overflow="visible"
             style="overflow:visible">
            <path
               id="path1269"
               d="M 2.25,-6.03125 C 2.25,-6.390625 2.265625,-6.5 3.0625,-6.5 h 0.25 v -0.3125 c -0.34375,0.03125 -1.125,0.03125 -1.515625,0.03125 -0.375,0 -1.171875,0 -1.515625,-0.03125 V -6.5 h 0.25 c 0.796875,0 0.828125,0.109375 0.828125,0.46875 v 5.25 c 0,0.359375 -0.03125,0.46875 -0.828125,0.46875 h -0.25 V 0 c 0.34375,-0.03125 1.140625,-0.03125 1.515625,-0.03125 0.390625,0 1.171875,0 1.515625,0.03125 v -0.3125 h -0.25 C 2.265625,-0.3125 2.25,-0.421875 2.25,-0.78125 Z m 0,0"
               style="stroke:none"
               inkscape:connector-curvature="0" />
          </symbol>
          <symbol
             id="textext-a78fdd5e-2"
             overflow="visible"
             style="overflow:visible">
            <path
               id="path1272"
               d="m 6.640625,-6.75 h -6.09375 l -0.1875,2.25 h 0.25 C 0.75,-6.109375 0.890625,-6.4375 2.40625,-6.4375 c 0.171875,0 0.4375,0 0.53125,0.015625 0.21875,0.046875 0.21875,0.15625 0.21875,0.375 v 5.265625 c 0,0.328125 0,0.46875 -1.046875,0.46875 H 1.703125 V 0 C 2.109375,-0.03125 3.125,-0.03125 3.59375,-0.03125 c 0.453125,0 1.484375,0 1.890625,0.03125 v -0.3125 h -0.40625 c -1.046875,0 -1.046875,-0.140625 -1.046875,-0.46875 v -5.265625 c 0,-0.1875 0,-0.328125 0.1875,-0.375 0.109375,-0.015625 0.375,-0.015625 0.5625,-0.015625 1.515625,0 1.65625,0.328125 1.796875,1.9375 h 0.25 z m 0,0"
               style="stroke:none"
               inkscape:connector-curvature="0" />
          </symbol>
          <symbol
             id="textext-a78fdd5e-3"
             overflow="visible"
             style="overflow:visible">
            <path
               id="path1275"
               d="M 2.40625,-6.59375 C 2.3125,-6.8125 2.28125,-6.8125 2.046875,-6.8125 H 0.375 V -6.5 h 0.234375 c 0.765625,0 0.78125,0.109375 0.78125,0.46875 v 4.984375 c 0,0.265625 0,0.734375 -1.015625,0.734375 V 0 c 0.34375,-0.015625 0.828125,-0.03125 1.15625,-0.03125 0.328125,0 0.828125,0.015625 1.171875,0.03125 v -0.3125 c -1.03125,0 -1.03125,-0.46875 -1.03125,-0.734375 v -5.375 H 1.6875 L 4.09375,-0.21875 C 4.140625,-0.09375 4.1875,0 4.28125,0 4.390625,0 4.421875,-0.078125 4.46875,-0.1875 L 6.921875,-6.5 v 5.71875 c 0,0.359375 -0.015625,0.46875 -0.78125,0.46875 H 5.90625 V 0 c 0.359375,-0.03125 1.046875,-0.03125 1.4375,-0.03125 0.375,0 1.046875,0 1.421875,0.03125 v -0.3125 h -0.25 c -0.765625,0 -0.78125,-0.109375 -0.78125,-0.46875 v -5.25 C 7.734375,-6.390625 7.75,-6.5 8.515625,-6.5 h 0.25 v -0.3125 h -1.6875 C 6.8125,-6.8125 6.8125,-6.796875 6.75,-6.625 L 4.5625,-1 Z m 0,0"
               style="stroke:none"
               inkscape:connector-curvature="0" />
          </symbol>
        </g>
      </defs>
      <g
         id="g1472"
         transform="matrix(0.6116208,0,0,0.6116208,86.885576,50.873972)"
         ns0:preamble=""
         ns0:text="ITMY">
        <defs
           id="defs1459">
          <g
             id="g1457">
            <symbol
               id="textext-0e77d324-0"
               overflow="visible"
               style="overflow:visible">
              <path
                 id="path1442"
                 d=""
                 style="stroke:none"
                 inkscape:connector-curvature="0" />
            </symbol>
            <symbol
               id="textext-0e77d324-1"
               overflow="visible"
               style="overflow:visible">
              <path
                 id="path1445"
                 d="M 2.25,-6.03125 C 2.25,-6.390625 2.265625,-6.5 3.0625,-6.5 h 0.25 v -0.3125 c -0.34375,0.03125 -1.125,0.03125 -1.515625,0.03125 -0.375,0 -1.171875,0 -1.515625,-0.03125 V -6.5 h 0.25 c 0.796875,0 0.828125,0.109375 0.828125,0.46875 v 5.25 c 0,0.359375 -0.03125,0.46875 -0.828125,0.46875 h -0.25 V 0 c 0.34375,-0.03125 1.140625,-0.03125 1.515625,-0.03125 0.390625,0 1.171875,0 1.515625,0.03125 v -0.3125 h -0.25 C 2.265625,-0.3125 2.25,-0.421875 2.25,-0.78125 Z m 0,0"
                 style="stroke:none"
                 inkscape:connector-curvature="0" />
            </symbol>
            <symbol
               id="textext-0e77d324-2"
               overflow="visible"
               style="overflow:visible">
              <path
                 id="path1448"
                 d="m 6.640625,-6.75 h -6.09375 l -0.1875,2.25 h 0.25 C 0.75,-6.109375 0.890625,-6.4375 2.40625,-6.4375 c 0.171875,0 0.4375,0 0.53125,0.015625 0.21875,0.046875 0.21875,0.15625 0.21875,0.375 v 5.265625 c 0,0.328125 0,0.46875 -1.046875,0.46875 H 1.703125 V 0 C 2.109375,-0.03125 3.125,-0.03125 3.59375,-0.03125 c 0.453125,0 1.484375,0 1.890625,0.03125 v -0.3125 h -0.40625 c -1.046875,0 -1.046875,-0.140625 -1.046875,-0.46875 v -5.265625 c 0,-0.1875 0,-0.328125 0.1875,-0.375 0.109375,-0.015625 0.375,-0.015625 0.5625,-0.015625 1.515625,0 1.65625,0.328125 1.796875,1.9375 h 0.25 z m 0,0"
                 style="stroke:none"
                 inkscape:connector-curvature="0" />
            </symbol>
            <symbol
               id="textext-0e77d324-3"
               overflow="visible"
               style="overflow:visible">
              <path
                 id="path1451"
                 d="M 2.40625,-6.59375 C 2.3125,-6.8125 2.28125,-6.8125 2.046875,-6.8125 H 0.375 V -6.5 h 0.234375 c 0.765625,0 0.78125,0.109375 0.78125,0.46875 v 4.984375 c 0,0.265625 0,0.734375 -1.015625,0.734375 V 0 c 0.34375,-0.015625 0.828125,-0.03125 1.15625,-0.03125 0.328125,0 0.828125,0.015625 1.171875,0.03125 v -0.3125 c -1.03125,0 -1.03125,-0.46875 -1.03125,-0.734375 v -5.375 H 1.6875 L 4.09375,-0.21875 C 4.140625,-0.09375 4.1875,0 4.28125,0 4.390625,0 4.421875,-0.078125 4.46875,-0.1875 L 6.921875,-6.5 v 5.71875 c 0,0.359375 -0.015625,0.46875 -0.78125,0.46875 H 5.90625 V 0 c 0.359375,-0.03125 1.046875,-0.03125 1.4375,-0.03125 0.375,0 1.046875,0 1.421875,0.03125 v -0.3125 h -0.25 c -0.765625,0 -0.78125,-0.109375 -0.78125,-0.46875 v -5.25 C 7.734375,-6.390625 7.75,-6.5 8.515625,-6.5 h 0.25 v -0.3125 h -1.6875 C 6.8125,-6.8125 6.8125,-6.796875 6.75,-6.625 L 4.5625,-1 Z m 0,0"
                 style="stroke:none"
                 inkscape:connector-curvature="0" />
            </symbol>
            <symbol
               id="textext-0e77d324-4"
               overflow="visible"
               style="overflow:visible">
              <path
                 id="path1454"
                 d="M 6.078125,-5.859375 C 6.453125,-6.453125 7.03125,-6.5 7.359375,-6.5 V -6.8125 C 7.046875,-6.78125 6.65625,-6.78125 6.375,-6.78125 6.078125,-6.78125 5.5,-6.796875 5.234375,-6.8125 V -6.5 c 0.40625,0 0.5625,0.1875 0.5625,0.390625 0,0.109375 -0.0625,0.234375 -0.09375,0.296875 L 4.0625,-3.140625 2.25,-6.078125 C 2.1875,-6.1875 2.1875,-6.203125 2.1875,-6.25 c 0,-0.203125 0.25,-0.25 0.6875,-0.25 v -0.3125 c -0.359375,0.03125 -1.078125,0.03125 -1.46875,0.03125 -0.421875,0 -0.875,0 -1.296875,-0.03125 V -6.5 h 0.1875 c 0.671875,0 0.75,0.109375 0.90625,0.375 l 2.09375,3.40625 v 1.9375 c 0,0.359375 -0.015625,0.46875 -0.78125,0.46875 h -0.25 V 0 C 2.625,-0.03125 3.34375,-0.03125 3.734375,-0.03125 c 0.375,0 1.09375,0 1.453125,0.03125 V -0.3125 H 4.953125 C 4.1875,-0.3125 4.15625,-0.40625 4.15625,-0.796875 V -2.71875 Z m 0,0"
                 style="stroke:none"
                 inkscape:connector-curvature="0" />
            </symbol>
          </g>
        </defs>
        <g
           id="textext-0e77d324-5"
           transform="matrix(1.1144288,0,0,1.1144288,-23.436261,-14.641446)">
          <g
             id="g1469"
             style="fill:#000000;fill-opacity:1">
            <use
               id="use1461"
               y="134.765"
               x="223.43201"
               xlink:href="#textext-0e77d324-1"
               width="100%"
               height="100%" />
            <use
               id="use1463"
               y="134.765"
               x="227.0295"
               xlink:href="#textext-0e77d324-2"
               width="100%"
               height="100%" />
            <use
               id="use1465"
               y="134.765"
               x="234.22449"
               xlink:href="#textext-0e77d324-3"
               width="100%"
               height="100%" />
            <use
               id="use1467"
               y="134.765"
               x="243.35719"
               xlink:href="#textext-0e77d324-4"
               width="100%"
               height="100%" />
          </g>
        </g>
      </g>
      <g
         id="g1581"
         ns0:preamble=""
         ns0:text="ITMX\n"
         transform="matrix(0.66710354,0,0,0.66710354,142.32008,90.786899)">
        <defs
           id="defs1568">
          <g
             id="g1566">
            <symbol
               id="textext-d1176709-0"
               overflow="visible"
               style="overflow:visible">
              <path
                 id="path1551"
                 d=""
                 style="stroke:none"
                 inkscape:connector-curvature="0" />
            </symbol>
            <symbol
               id="textext-d1176709-1"
               overflow="visible"
               style="overflow:visible">
              <path
                 id="path1554"
                 d="M 2.25,-6.03125 C 2.25,-6.390625 2.265625,-6.5 3.0625,-6.5 h 0.25 v -0.3125 c -0.34375,0.03125 -1.125,0.03125 -1.515625,0.03125 -0.375,0 -1.171875,0 -1.515625,-0.03125 V -6.5 h 0.25 c 0.796875,0 0.828125,0.109375 0.828125,0.46875 v 5.25 c 0,0.359375 -0.03125,0.46875 -0.828125,0.46875 h -0.25 V 0 c 0.34375,-0.03125 1.140625,-0.03125 1.515625,-0.03125 0.390625,0 1.171875,0 1.515625,0.03125 v -0.3125 h -0.25 C 2.265625,-0.3125 2.25,-0.421875 2.25,-0.78125 Z m 0,0"
                 style="stroke:none"
                 inkscape:connector-curvature="0" />
            </symbol>
            <symbol
               id="textext-d1176709-2"
               overflow="visible"
               style="overflow:visible">
              <path
                 id="path1557"
                 d="m 6.640625,-6.75 h -6.09375 l -0.1875,2.25 h 0.25 C 0.75,-6.109375 0.890625,-6.4375 2.40625,-6.4375 c 0.171875,0 0.4375,0 0.53125,0.015625 0.21875,0.046875 0.21875,0.15625 0.21875,0.375 v 5.265625 c 0,0.328125 0,0.46875 -1.046875,0.46875 H 1.703125 V 0 C 2.109375,-0.03125 3.125,-0.03125 3.59375,-0.03125 c 0.453125,0 1.484375,0 1.890625,0.03125 v -0.3125 h -0.40625 c -1.046875,0 -1.046875,-0.140625 -1.046875,-0.46875 v -5.265625 c 0,-0.1875 0,-0.328125 0.1875,-0.375 0.109375,-0.015625 0.375,-0.015625 0.5625,-0.015625 1.515625,0 1.65625,0.328125 1.796875,1.9375 h 0.25 z m 0,0"
                 style="stroke:none"
                 inkscape:connector-curvature="0" />
            </symbol>
            <symbol
               id="textext-d1176709-3"
               overflow="visible"
               style="overflow:visible">
              <path
                 id="path1560"
                 d="M 2.40625,-6.59375 C 2.3125,-6.8125 2.28125,-6.8125 2.046875,-6.8125 H 0.375 V -6.5 h 0.234375 c 0.765625,0 0.78125,0.109375 0.78125,0.46875 v 4.984375 c 0,0.265625 0,0.734375 -1.015625,0.734375 V 0 c 0.34375,-0.015625 0.828125,-0.03125 1.15625,-0.03125 0.328125,0 0.828125,0.015625 1.171875,0.03125 v -0.3125 c -1.03125,0 -1.03125,-0.46875 -1.03125,-0.734375 v -5.375 H 1.6875 L 4.09375,-0.21875 C 4.140625,-0.09375 4.1875,0 4.28125,0 4.390625,0 4.421875,-0.078125 4.46875,-0.1875 L 6.921875,-6.5 v 5.71875 c 0,0.359375 -0.015625,0.46875 -0.78125,0.46875 H 5.90625 V 0 c 0.359375,-0.03125 1.046875,-0.03125 1.4375,-0.03125 0.375,0 1.046875,0 1.421875,0.03125 v -0.3125 h -0.25 c -0.765625,0 -0.78125,-0.109375 -0.78125,-0.46875 v -5.25 C 7.734375,-6.390625 7.75,-6.5 8.515625,-6.5 h 0.25 v -0.3125 h -1.6875 C 6.8125,-6.8125 6.8125,-6.796875 6.75,-6.625 L 4.5625,-1 Z m 0,0"
                 style="stroke:none"
                 inkscape:connector-curvature="0" />
            </symbol>
            <symbol
               id="textext-d1176709-4"
               overflow="visible"
               style="overflow:visible">
              <path
                 id="path1563"
                 d="m 4,-3.84375 1.375,-2.015625 c 0.21875,-0.3125 0.5625,-0.625 1.4375,-0.640625 v -0.3125 c -0.375,0.015625 -0.84375,0.03125 -1.09375,0.03125 -0.40625,0 -0.890625,0 -1.28125,-0.03125 V -6.5 c 0.390625,0.015625 0.609375,0.234375 0.609375,0.453125 0,0.109375 -0.015625,0.125 -0.078125,0.234375 L 3.828125,-4.125 2.546875,-6.046875 C 2.515625,-6.078125 2.46875,-6.15625 2.46875,-6.203125 2.46875,-6.3125 2.6875,-6.484375 3.125,-6.5 v -0.3125 c -0.359375,0.03125 -1.078125,0.03125 -1.453125,0.03125 -0.3125,0 -0.9375,0 -1.296875,-0.03125 V -6.5 h 0.1875 c 0.546875,0 0.734375,0.0625 0.921875,0.34375 L 3.3125,-3.375 1.6875,-0.96875 C 1.546875,-0.765625 1.25,-0.3125 0.234375,-0.3125 V 0 c 0.359375,-0.015625 0.78125,-0.03125 1.109375,-0.03125 0.375,0 0.921875,0 1.28125,0.03125 V -0.3125 C 2.15625,-0.3125 2,-0.59375 2,-0.765625 2,-0.859375 2.03125,-0.890625 2.09375,-1 l 1.421875,-2.09375 1.5625,2.375 c 0.03125,0.046875 0.0625,0.078125 0.0625,0.109375 0,0.125 -0.21875,0.296875 -0.65625,0.296875 V 0 C 4.828125,-0.03125 5.5625,-0.03125 5.9375,-0.03125 c 0.421875,0 0.875,0.015625 1.296875,0.03125 v -0.3125 h -0.1875 c -0.515625,0 -0.734375,-0.046875 -0.9375,-0.359375 z m 0,0"
                 style="stroke:none"
                 inkscape:connector-curvature="0" />
            </symbol>
          </g>
        </defs>
        <g
           id="textext-d1176709-5">
          <g
             id="g1578"
             style="fill:#000000;fill-opacity:1">
            <use
               id="use1570"
               y="134.765"
               x="223.43201"
               xlink:href="#textext-d1176709-1"
               width="100%"
               height="100%" />
            <use
               id="use1572"
               y="134.765"
               x="227.0295"
               xlink:href="#textext-d1176709-2"
               width="100%"
               height="100%" />
            <use
               id="use1574"
               y="134.765"
               x="234.22449"
               xlink:href="#textext-d1176709-3"
               width="100%"
               height="100%" />
            <use
               id="use1576"
               y="134.765"
               x="243.35719"
               xlink:href="#textext-d1176709-4"
               width="100%"
               height="100%" />
          </g>
        </g>
      </g>
      <g
         id="g1709"
         ns0:preamble=""
         ns0:text="ETMX"
         transform="matrix(0.63936217,0,0,0.63936217,222.24845,94.525465)">
        <defs
           id="defs1696">
          <g
             id="g1694">
            <symbol
               id="textext-c8d43fb4-0"
               overflow="visible"
               style="overflow:visible">
              <path
                 id="path1679"
                 d=""
                 style="stroke:none"
                 inkscape:connector-curvature="0" />
            </symbol>
            <symbol
               id="textext-c8d43fb4-1"
               overflow="visible"
               style="overflow:visible">
              <path
                 id="path1682"
                 d="m 1.359375,-0.78125 c 0,0.359375 -0.03125,0.46875 -0.796875,0.46875 H 0.328125 V 0 h 5.75 L 6.5,-2.578125 H 6.25 C 6,-1.03125 5.765625,-0.3125 4.0625,-0.3125 H 2.734375 C 2.265625,-0.3125 2.25,-0.375 2.25,-0.703125 V -3.375 h 0.890625 c 0.96875,0 1.078125,0.328125 1.078125,1.171875 h 0.25 V -4.84375 h -0.25 c 0,0.859375 -0.109375,1.171875 -1.078125,1.171875 H 2.25 v -2.40625 c 0,-0.328125 0.015625,-0.390625 0.484375,-0.390625 h 1.28125 c 1.53125,0 1.796875,0.546875 1.953125,1.9375 h 0.25 l -0.28125,-2.25 H 0.328125 v 0.3125 H 0.5625 c 0.765625,0 0.796875,0.109375 0.796875,0.46875 z m 0,0"
                 style="stroke:none"
                 inkscape:connector-curvature="0" />
            </symbol>
            <symbol
               id="textext-c8d43fb4-2"
               overflow="visible"
               style="overflow:visible">
              <path
                 id="path1685"
                 d="m 6.640625,-6.75 h -6.09375 l -0.1875,2.25 h 0.25 C 0.75,-6.109375 0.890625,-6.4375 2.40625,-6.4375 c 0.171875,0 0.4375,0 0.53125,0.015625 0.21875,0.046875 0.21875,0.15625 0.21875,0.375 v 5.265625 c 0,0.328125 0,0.46875 -1.046875,0.46875 H 1.703125 V 0 C 2.109375,-0.03125 3.125,-0.03125 3.59375,-0.03125 c 0.453125,0 1.484375,0 1.890625,0.03125 v -0.3125 h -0.40625 c -1.046875,0 -1.046875,-0.140625 -1.046875,-0.46875 v -5.265625 c 0,-0.1875 0,-0.328125 0.1875,-0.375 0.109375,-0.015625 0.375,-0.015625 0.5625,-0.015625 1.515625,0 1.65625,0.328125 1.796875,1.9375 h 0.25 z m 0,0"
                 style="stroke:none"
                 inkscape:connector-curvature="0" />
            </symbol>
            <symbol
               id="textext-c8d43fb4-3"
               overflow="visible"
               style="overflow:visible">
              <path
                 id="path1688"
                 d="M 2.40625,-6.59375 C 2.3125,-6.8125 2.28125,-6.8125 2.046875,-6.8125 H 0.375 V -6.5 h 0.234375 c 0.765625,0 0.78125,0.109375 0.78125,0.46875 v 4.984375 c 0,0.265625 0,0.734375 -1.015625,0.734375 V 0 c 0.34375,-0.015625 0.828125,-0.03125 1.15625,-0.03125 0.328125,0 0.828125,0.015625 1.171875,0.03125 v -0.3125 c -1.03125,0 -1.03125,-0.46875 -1.03125,-0.734375 v -5.375 H 1.6875 L 4.09375,-0.21875 C 4.140625,-0.09375 4.1875,0 4.28125,0 4.390625,0 4.421875,-0.078125 4.46875,-0.1875 L 6.921875,-6.5 v 5.71875 c 0,0.359375 -0.015625,0.46875 -0.78125,0.46875 H 5.90625 V 0 c 0.359375,-0.03125 1.046875,-0.03125 1.4375,-0.03125 0.375,0 1.046875,0 1.421875,0.03125 v -0.3125 h -0.25 c -0.765625,0 -0.78125,-0.109375 -0.78125,-0.46875 v -5.25 C 7.734375,-6.390625 7.75,-6.5 8.515625,-6.5 h 0.25 v -0.3125 h -1.6875 C 6.8125,-6.8125 6.8125,-6.796875 6.75,-6.625 L 4.5625,-1 Z m 0,0"
                 style="stroke:none"
                 inkscape:connector-curvature="0" />
            </symbol>
            <symbol
               id="textext-c8d43fb4-4"
               overflow="visible"
               style="overflow:visible">
              <path
                 id="path1691"
                 d="m 4,-3.84375 1.375,-2.015625 c 0.21875,-0.3125 0.5625,-0.625 1.4375,-0.640625 v -0.3125 c -0.375,0.015625 -0.84375,0.03125 -1.09375,0.03125 -0.40625,0 -0.890625,0 -1.28125,-0.03125 V -6.5 c 0.390625,0.015625 0.609375,0.234375 0.609375,0.453125 0,0.109375 -0.015625,0.125 -0.078125,0.234375 L 3.828125,-4.125 2.546875,-6.046875 C 2.515625,-6.078125 2.46875,-6.15625 2.46875,-6.203125 2.46875,-6.3125 2.6875,-6.484375 3.125,-6.5 v -0.3125 c -0.359375,0.03125 -1.078125,0.03125 -1.453125,0.03125 -0.3125,0 -0.9375,0 -1.296875,-0.03125 V -6.5 h 0.1875 c 0.546875,0 0.734375,0.0625 0.921875,0.34375 L 3.3125,-3.375 1.6875,-0.96875 C 1.546875,-0.765625 1.25,-0.3125 0.234375,-0.3125 V 0 c 0.359375,-0.015625 0.78125,-0.03125 1.109375,-0.03125 0.375,0 0.921875,0 1.28125,0.03125 V -0.3125 C 2.15625,-0.3125 2,-0.59375 2,-0.765625 2,-0.859375 2.03125,-0.890625 2.09375,-1 l 1.421875,-2.09375 1.5625,2.375 c 0.03125,0.046875 0.0625,0.078125 0.0625,0.109375 0,0.125 -0.21875,0.296875 -0.65625,0.296875 V 0 C 4.828125,-0.03125 5.5625,-0.03125 5.9375,-0.03125 c 0.421875,0 0.875,0.015625 1.296875,0.03125 v -0.3125 h -0.1875 c -0.515625,0 -0.734375,-0.046875 -0.9375,-0.359375 z m 0,0"
                 style="stroke:none"
                 inkscape:connector-curvature="0" />
            </symbol>
          </g>
        </defs>
        <g
           id="textext-c8d43fb4-5">
          <g
             id="g1706"
             style="fill:#000000;fill-opacity:1">
            <use
               id="use1698"
               y="134.765"
               x="223.43201"
               xlink:href="#textext-c8d43fb4-1"
               width="100%"
               height="100%" />
            <use
               id="use1700"
               y="134.765"
               x="230.21254"
               xlink:href="#textext-c8d43fb4-2"
               width="100%"
               height="100%" />
            <use
               id="use1702"
               y="134.765"
               x="237.40753"
               xlink:href="#textext-c8d43fb4-3"
               width="100%"
               height="100%" />
            <use
               id="use1704"
               y="134.765"
               x="246.54025"
               xlink:href="#textext-c8d43fb4-4"
               width="100%"
               height="100%" />
          </g>
        </g>
      </g>
      <g
         id="g1856"
         ns0:preamble=""
         ns0:text="ETMY"
         transform="matrix(0.63936217,0,0,0.63936217,82.116407,-28.316797)">
        <defs
           id="defs1843">
          <g
             id="g1841">
            <symbol
               id="textext-48b0c987-0"
               overflow="visible"
               style="overflow:visible">
              <path
                 id="path1826"
                 d=""
                 style="stroke:none"
                 inkscape:connector-curvature="0" />
            </symbol>
            <symbol
               id="textext-48b0c987-1"
               overflow="visible"
               style="overflow:visible">
              <path
                 id="path1829"
                 d="m 1.359375,-0.78125 c 0,0.359375 -0.03125,0.46875 -0.796875,0.46875 H 0.328125 V 0 h 5.75 L 6.5,-2.578125 H 6.25 C 6,-1.03125 5.765625,-0.3125 4.0625,-0.3125 H 2.734375 C 2.265625,-0.3125 2.25,-0.375 2.25,-0.703125 V -3.375 h 0.890625 c 0.96875,0 1.078125,0.328125 1.078125,1.171875 h 0.25 V -4.84375 h -0.25 c 0,0.859375 -0.109375,1.171875 -1.078125,1.171875 H 2.25 v -2.40625 c 0,-0.328125 0.015625,-0.390625 0.484375,-0.390625 h 1.28125 c 1.53125,0 1.796875,0.546875 1.953125,1.9375 h 0.25 l -0.28125,-2.25 H 0.328125 v 0.3125 H 0.5625 c 0.765625,0 0.796875,0.109375 0.796875,0.46875 z m 0,0"
                 style="stroke:none"
                 inkscape:connector-curvature="0" />
            </symbol>
            <symbol
               id="textext-48b0c987-2"
               overflow="visible"
               style="overflow:visible">
              <path
                 id="path1832"
                 d="m 6.640625,-6.75 h -6.09375 l -0.1875,2.25 h 0.25 C 0.75,-6.109375 0.890625,-6.4375 2.40625,-6.4375 c 0.171875,0 0.4375,0 0.53125,0.015625 0.21875,0.046875 0.21875,0.15625 0.21875,0.375 v 5.265625 c 0,0.328125 0,0.46875 -1.046875,0.46875 H 1.703125 V 0 C 2.109375,-0.03125 3.125,-0.03125 3.59375,-0.03125 c 0.453125,0 1.484375,0 1.890625,0.03125 v -0.3125 h -0.40625 c -1.046875,0 -1.046875,-0.140625 -1.046875,-0.46875 v -5.265625 c 0,-0.1875 0,-0.328125 0.1875,-0.375 0.109375,-0.015625 0.375,-0.015625 0.5625,-0.015625 1.515625,0 1.65625,0.328125 1.796875,1.9375 h 0.25 z m 0,0"
                 style="stroke:none"
                 inkscape:connector-curvature="0" />
            </symbol>
            <symbol
               id="textext-48b0c987-3"
               overflow="visible"
               style="overflow:visible">
              <path
                 id="path1835"
                 d="M 2.40625,-6.59375 C 2.3125,-6.8125 2.28125,-6.8125 2.046875,-6.8125 H 0.375 V -6.5 h 0.234375 c 0.765625,0 0.78125,0.109375 0.78125,0.46875 v 4.984375 c 0,0.265625 0,0.734375 -1.015625,0.734375 V 0 c 0.34375,-0.015625 0.828125,-0.03125 1.15625,-0.03125 0.328125,0 0.828125,0.015625 1.171875,0.03125 v -0.3125 c -1.03125,0 -1.03125,-0.46875 -1.03125,-0.734375 v -5.375 H 1.6875 L 4.09375,-0.21875 C 4.140625,-0.09375 4.1875,0 4.28125,0 4.390625,0 4.421875,-0.078125 4.46875,-0.1875 L 6.921875,-6.5 v 5.71875 c 0,0.359375 -0.015625,0.46875 -0.78125,0.46875 H 5.90625 V 0 c 0.359375,-0.03125 1.046875,-0.03125 1.4375,-0.03125 0.375,0 1.046875,0 1.421875,0.03125 v -0.3125 h -0.25 c -0.765625,0 -0.78125,-0.109375 -0.78125,-0.46875 v -5.25 C 7.734375,-6.390625 7.75,-6.5 8.515625,-6.5 h 0.25 v -0.3125 h -1.6875 C 6.8125,-6.8125 6.8125,-6.796875 6.75,-6.625 L 4.5625,-1 Z m 0,0"
                 style="stroke:none"
                 inkscape:connector-curvature="0" />
            </symbol>
            <symbol
               id="textext-48b0c987-4"
               overflow="visible"
               style="overflow:visible">
              <path
                 id="path1838"
                 d="M 6.078125,-5.859375 C 6.453125,-6.453125 7.03125,-6.5 7.359375,-6.5 V -6.8125 C 7.046875,-6.78125 6.65625,-6.78125 6.375,-6.78125 6.078125,-6.78125 5.5,-6.796875 5.234375,-6.8125 V -6.5 c 0.40625,0 0.5625,0.1875 0.5625,0.390625 0,0.109375 -0.0625,0.234375 -0.09375,0.296875 L 4.0625,-3.140625 2.25,-6.078125 C 2.1875,-6.1875 2.1875,-6.203125 2.1875,-6.25 c 0,-0.203125 0.25,-0.25 0.6875,-0.25 v -0.3125 c -0.359375,0.03125 -1.078125,0.03125 -1.46875,0.03125 -0.421875,0 -0.875,0 -1.296875,-0.03125 V -6.5 h 0.1875 c 0.671875,0 0.75,0.109375 0.90625,0.375 l 2.09375,3.40625 v 1.9375 c 0,0.359375 -0.015625,0.46875 -0.78125,0.46875 h -0.25 V 0 C 2.625,-0.03125 3.34375,-0.03125 3.734375,-0.03125 c 0.375,0 1.09375,0 1.453125,0.03125 V -0.3125 H 4.953125 C 4.1875,-0.3125 4.15625,-0.40625 4.15625,-0.796875 V -2.71875 Z m 0,0"
                 style="stroke:none"
                 inkscape:connector-curvature="0" />
            </symbol>
          </g>
        </defs>
        <g
           id="textext-48b0c987-5">
          <g
             id="g1853"
             style="fill:#000000;fill-opacity:1">
            <use
               id="use1845"
               y="134.765"
               x="223.43201"
               xlink:href="#textext-48b0c987-1"
               width="100%"
               height="100%" />
            <use
               id="use1847"
               y="134.765"
               x="230.21254"
               xlink:href="#textext-48b0c987-2"
               width="100%"
               height="100%" />
            <use
               id="use1849"
               y="134.765"
               x="237.40753"
               xlink:href="#textext-48b0c987-3"
               width="100%"
               height="100%" />
            <use
               id="use1851"
               y="134.765"
               x="246.54025"
               xlink:href="#textext-48b0c987-4"
               width="100%"
               height="100%" />
          </g>
        </g>
      </g>
      <g
         id="g2027"
         ns0:preamble=""
         ns0:text="LASER"
         transform="matrix(0.58912142,0,0,0.58912142,53.762648,69.069075)">
        <defs
           id="defs2012">
          <g
             id="g2010">
            <symbol
               id="textext-1128502c-0"
               overflow="visible"
               style="overflow:visible">
              <path
                 id="path1992"
                 d=""
                 style="stroke:none"
                 inkscape:connector-curvature="0" />
            </symbol>
            <symbol
               id="textext-1128502c-1"
               overflow="visible"
               style="overflow:visible">
              <path
                 id="path1995"
                 d="m 5.796875,-2.578125 h -0.25 c -0.109375,1.015625 -0.25,2.265625 -2,2.265625 h -0.8125 C 2.265625,-0.3125 2.25,-0.375 2.25,-0.703125 v -5.3125 C 2.25,-6.359375 2.25,-6.5 3.1875,-6.5 H 3.515625 V -6.8125 C 3.15625,-6.78125 2.25,-6.78125 1.84375,-6.78125 c -0.390625,0 -1.171875,0 -1.515625,-0.03125 V -6.5 H 0.5625 c 0.765625,0 0.796875,0.109375 0.796875,0.46875 v 5.25 c 0,0.359375 -0.03125,0.46875 -0.796875,0.46875 H 0.328125 V 0 h 5.1875 z m 0,0"
                 style="stroke:none"
                 inkscape:connector-curvature="0" />
            </symbol>
            <symbol
               id="textext-1128502c-2"
               overflow="visible"
               style="overflow:visible">
              <path
                 id="path1998"
                 d="m 3.96875,-6.9375 c -0.046875,-0.125 -0.078125,-0.203125 -0.234375,-0.203125 -0.15625,0 -0.1875,0.0625 -0.234375,0.203125 L 1.4375,-0.984375 C 1.25,-0.46875 0.859375,-0.3125 0.3125,-0.3125 V 0 c 0.234375,-0.015625 0.671875,-0.03125 1.015625,-0.03125 0.3125,0 0.828125,0.015625 1.15625,0.03125 v -0.3125 c -0.5,0 -0.75,-0.25 -0.75,-0.5 0,-0.03125 0.015625,-0.140625 0.015625,-0.15625 L 2.21875,-2.265625 H 4.671875 L 5.203125,-0.75 c 0.015625,0.046875 0.03125,0.109375 0.03125,0.140625 0,0.296875 -0.5625,0.296875 -0.828125,0.296875 V 0 c 0.359375,-0.03125 1.0625,-0.03125 1.4375,-0.03125 0.421875,0 0.890625,0.015625 1.296875,0.03125 V -0.3125 H 6.96875 C 6.375,-0.3125 6.234375,-0.375 6.125,-0.703125 Z m -0.53125,1.109375 1.125,3.25 H 2.328125 Z m 0,0"
                 style="stroke:none"
                 inkscape:connector-curvature="0" />
            </symbol>
            <symbol
               id="textext-1128502c-3"
               overflow="visible"
               style="overflow:visible">
              <path
                 id="path2001"
                 d="m 3.484375,-3.875 -1.28125,-0.296875 c -0.625,-0.15625 -1,-0.6875 -1,-1.265625 0,-0.703125 0.53125,-1.3125 1.3125,-1.3125 1.65625,0 1.875,1.640625 1.9375,2.078125 0.015625,0.0625 0.015625,0.125 0.125,0.125 0.125,0 0.125,-0.046875 0.125,-0.234375 v -2 c 0,-0.171875 0,-0.25 -0.109375,-0.25 -0.0625,0 -0.078125,0.015625 -0.140625,0.140625 l -0.359375,0.5625 C 3.796875,-6.625 3.390625,-7.03125 2.5,-7.03125 c -1.109375,0 -1.9375,0.875 -1.9375,1.9375 0,0.828125 0.53125,1.5625 1.296875,1.828125 0.109375,0.03125 0.625,0.15625 1.328125,0.328125 0.265625,0.0625 0.5625,0.140625 0.84375,0.5 0.203125,0.265625 0.3125,0.59375 0.3125,0.921875 0,0.703125 -0.5,1.421875 -1.34375,1.421875 -0.28125,0 -1.046875,-0.046875 -1.578125,-0.53125 C 0.84375,-1.171875 0.8125,-1.796875 0.8125,-2.15625 0.796875,-2.265625 0.71875,-2.265625 0.6875,-2.265625 c -0.125,0 -0.125,0.078125 -0.125,0.25 v 2 c 0,0.171875 0,0.234375 0.109375,0.234375 0.0625,0 0.078125,-0.015625 0.140625,-0.125 0,-0.015625 0.03125,-0.046875 0.359375,-0.578125 0.3125,0.34375 0.953125,0.703125 1.84375,0.703125 1.15625,0 1.953125,-0.96875 1.953125,-2.078125 0,-0.984375 -0.65625,-1.8125 -1.484375,-2.015625 z m 0,0"
                 style="stroke:none"
                 inkscape:connector-curvature="0" />
            </symbol>
            <symbol
               id="textext-1128502c-4"
               overflow="visible"
               style="overflow:visible">
              <path
                 id="path2004"
                 d="m 1.359375,-0.78125 c 0,0.359375 -0.03125,0.46875 -0.796875,0.46875 H 0.328125 V 0 h 5.75 L 6.5,-2.578125 H 6.25 C 6,-1.03125 5.765625,-0.3125 4.0625,-0.3125 H 2.734375 C 2.265625,-0.3125 2.25,-0.375 2.25,-0.703125 V -3.375 h 0.890625 c 0.96875,0 1.078125,0.328125 1.078125,1.171875 h 0.25 V -4.84375 h -0.25 c 0,0.859375 -0.109375,1.171875 -1.078125,1.171875 H 2.25 v -2.40625 c 0,-0.328125 0.015625,-0.390625 0.484375,-0.390625 h 1.28125 c 1.53125,0 1.796875,0.546875 1.953125,1.9375 h 0.25 l -0.28125,-2.25 H 0.328125 v 0.3125 H 0.5625 c 0.765625,0 0.796875,0.109375 0.796875,0.46875 z m 0,0"
                 style="stroke:none"
                 inkscape:connector-curvature="0" />
            </symbol>
            <symbol
               id="textext-1128502c-5"
               overflow="visible"
               style="overflow:visible">
              <path
                 id="path2007"
                 d="M 2.234375,-3.515625 V -6.09375 c 0,-0.234375 0,-0.359375 0.21875,-0.390625 C 2.546875,-6.5 2.84375,-6.5 3.046875,-6.5 c 0.890625,0 2,0.046875 2,1.484375 0,0.6875 -0.234375,1.5 -1.703125,1.5 z m 2.109375,0.125 C 5.296875,-3.625 6.078125,-4.234375 6.078125,-5.015625 6.078125,-5.96875 4.9375,-6.8125 3.484375,-6.8125 H 0.34375 V -6.5 h 0.25 c 0.765625,0 0.78125,0.109375 0.78125,0.46875 v 5.25 c 0,0.359375 -0.015625,0.46875 -0.78125,0.46875 h -0.25 V 0 c 0.359375,-0.03125 1.078125,-0.03125 1.453125,-0.03125 0.390625,0 1.109375,0 1.46875,0.03125 v -0.3125 h -0.25 c -0.765625,0 -0.78125,-0.109375 -0.78125,-0.46875 V -3.296875 H 3.375 c 0.15625,0 0.578125,0 0.9375,0.34375 0.375,0.34375 0.375,0.65625 0.375,1.328125 0,0.640625 0,1.046875 0.40625,1.421875 0.40625,0.359375 0.953125,0.421875 1.25,0.421875 0.78125,0 0.953125,-0.8125 0.953125,-1.09375 0,-0.0625 0,-0.171875 -0.125,-0.171875 -0.109375,0 -0.109375,0.09375 -0.125,0.15625 C 6.984375,-0.171875 6.640625,0 6.390625,0 5.90625,0 5.828125,-0.515625 5.6875,-1.4375 L 5.546875,-2.234375 C 5.375,-2.875 4.890625,-3.203125 4.34375,-3.390625 Z m 0,0"
                 style="stroke:none"
                 inkscape:connector-curvature="0" />
            </symbol>
          </g>
        </defs>
        <g
           id="textext-1128502c-6">
          <g
             id="g2024"
             style="fill:#000000;fill-opacity:1">
            <use
               id="use2014"
               y="134.765"
               x="223.43201"
               xlink:href="#textext-1128502c-1"
               width="100%"
               height="100%" />
            <use
               id="use2016"
               y="134.765"
               x="229.65863"
               xlink:href="#textext-1128502c-2"
               width="100%"
               height="100%" />
            <use
               id="use2018"
               y="134.765"
               x="237.13057"
               xlink:href="#textext-1128502c-3"
               width="100%"
               height="100%" />
            <use
               id="use2020"
               y="134.765"
               x="242.6658"
               xlink:href="#textext-1128502c-4"
               width="100%"
               height="100%" />
            <use
               id="use2022"
               y="134.765"
               x="249.44633"
               xlink:href="#textext-1128502c-5"
               width="100%"
               height="100%" />
          </g>
        </g>
      </g>
      <g
         id="g2232"
         ns0:preamble=""
         ns0:text="Detector"
         transform="matrix(0.69966677,0,0,0.69966677,94.043604,111.94476)">
        <defs
           id="defs2211">
          <g
             id="g2209">
            <symbol
               id="textext-918ae2f8-0"
               overflow="visible"
               style="overflow:visible">
              <path
                 id="path2188"
                 d=""
                 style="stroke:none"
                 inkscape:connector-curvature="0" />
            </symbol>
            <symbol
               id="textext-918ae2f8-1"
               overflow="visible"
               style="overflow:visible">
              <path
                 id="path2191"
                 d="M 0.34375,-6.8125 V -6.5 h 0.25 c 0.765625,0 0.78125,0.109375 0.78125,0.46875 v 5.25 c 0,0.359375 -0.015625,0.46875 -0.78125,0.46875 h -0.25 V 0 H 4 C 5.671875,0 7.046875,-1.46875 7.046875,-3.34375 7.046875,-5.25 5.703125,-6.8125 4,-6.8125 Z m 2.375,6.5 C 2.25,-0.3125 2.234375,-0.375 2.234375,-0.703125 V -6.09375 C 2.234375,-6.4375 2.25,-6.5 2.71875,-6.5 h 1 c 0.625,0 1.3125,0.21875 1.8125,0.921875 0.4375,0.59375 0.515625,1.453125 0.515625,2.234375 0,1.09375 -0.1875,1.703125 -0.546875,2.1875 -0.203125,0.265625 -0.765625,0.84375 -1.765625,0.84375 z m 0,0"
                 style="stroke:none"
                 inkscape:connector-curvature="0" />
            </symbol>
            <symbol
               id="textext-918ae2f8-2"
               overflow="visible"
               style="overflow:visible">
              <path
                 id="path2194"
                 d="M 1.109375,-2.515625 C 1.171875,-4 2.015625,-4.25 2.359375,-4.25 c 1.015625,0 1.125,1.34375 1.125,1.734375 z m 0,0.21875 h 2.78125 c 0.21875,0 0.25,0 0.25,-0.21875 0,-0.984375 -0.546875,-1.953125 -1.78125,-1.953125 -1.15625,0 -2.078125,1.03125 -2.078125,2.28125 0,1.328125 1.046875,2.296875 2.1875,2.296875 C 3.6875,0.109375 4.140625,-1 4.140625,-1.1875 4.140625,-1.28125 4.0625,-1.3125 4,-1.3125 c -0.078125,0 -0.109375,0.0625 -0.125,0.140625 -0.34375,1.03125 -1.25,1.03125 -1.34375,1.03125 -0.5,0 -0.890625,-0.296875 -1.125,-0.671875 -0.296875,-0.46875 -0.296875,-1.125 -0.296875,-1.484375 z m 0,0"
                 style="stroke:none"
                 inkscape:connector-curvature="0" />
            </symbol>
            <symbol
               id="textext-918ae2f8-3"
               overflow="visible"
               style="overflow:visible">
              <path
                 id="path2197"
                 d="m 1.71875,-3.984375 h 1.4375 v -0.3125 H 1.71875 V -6.125 h -0.25 c 0,0.8125 -0.296875,1.875 -1.28125,1.921875 v 0.21875 h 0.84375 v 2.75 c 0,1.21875 0.9375,1.34375 1.296875,1.34375 0.703125,0 0.984375,-0.703125 0.984375,-1.34375 v -0.5625 h -0.25 V -1.25 c 0,0.734375 -0.296875,1.109375 -0.671875,1.109375 -0.671875,0 -0.671875,-0.90625 -0.671875,-1.078125 z m 0,0"
                 style="stroke:none"
                 inkscape:connector-curvature="0" />
            </symbol>
            <symbol
               id="textext-918ae2f8-4"
               overflow="visible"
               style="overflow:visible">
              <path
                 id="path2200"
                 d="m 1.171875,-2.171875 c 0,-1.625 0.8125,-2.046875 1.34375,-2.046875 0.09375,0 0.71875,0.015625 1.0625,0.375 -0.40625,0.03125 -0.46875,0.328125 -0.46875,0.453125 0,0.265625 0.1875,0.453125 0.453125,0.453125 0.265625,0 0.46875,-0.15625 0.46875,-0.46875 0,-0.671875 -0.765625,-1.0625 -1.53125,-1.0625 -1.25,0 -2.15625,1.078125 -2.15625,2.3125 0,1.28125 0.984375,2.265625 2.140625,2.265625 1.328125,0 1.65625,-1.203125 1.65625,-1.296875 0,-0.09375 -0.109375,-0.09375 -0.140625,-0.09375 -0.078125,0 -0.109375,0.03125 -0.125,0.09375 -0.28125,0.921875 -0.9375,1.046875 -1.296875,1.046875 -0.53125,0 -1.40625,-0.421875 -1.40625,-2.03125 z m 0,0"
                 style="stroke:none"
                 inkscape:connector-curvature="0" />
            </symbol>
            <symbol
               id="textext-918ae2f8-5"
               overflow="visible"
               style="overflow:visible">
              <path
                 id="path2203"
                 d="M 4.6875,-2.140625 C 4.6875,-3.40625 3.703125,-4.46875 2.5,-4.46875 c -1.25,0 -2.21875,1.09375 -2.21875,2.328125 0,1.296875 1.03125,2.25 2.203125,2.25 1.203125,0 2.203125,-0.984375 2.203125,-2.25 z m -2.1875,2 c -0.4375,0 -0.875,-0.203125 -1.140625,-0.671875 -0.25,-0.4375 -0.25,-1.046875 -0.25,-1.40625 0,-0.390625 0,-0.921875 0.234375,-1.359375 C 1.609375,-4.03125 2.078125,-4.25 2.484375,-4.25 c 0.4375,0 0.859375,0.21875 1.125,0.65625 0.265625,0.421875 0.265625,1 0.265625,1.375 0,0.359375 0,0.90625 -0.21875,1.34375 C 3.421875,-0.421875 2.984375,-0.140625 2.5,-0.140625 Z m 0,0"
                 style="stroke:none"
                 inkscape:connector-curvature="0" />
            </symbol>
            <symbol
               id="textext-918ae2f8-6"
               overflow="visible"
               style="overflow:visible">
              <path
                 id="path2206"
                 d="M 1.671875,-3.3125 V -4.40625 L 0.28125,-4.296875 v 0.3125 c 0.703125,0 0.78125,0.0625 0.78125,0.5625 V -0.75 c 0,0.4375 -0.109375,0.4375 -0.78125,0.4375 V 0 c 0.390625,-0.015625 0.859375,-0.03125 1.140625,-0.03125 0.390625,0 0.859375,0 1.265625,0.03125 V -0.3125 H 2.46875 c -0.734375,0 -0.75,-0.109375 -0.75,-0.46875 V -2.3125 c 0,-0.984375 0.421875,-1.875 1.171875,-1.875 0.0625,0 0.09375,0 0.109375,0.015625 -0.03125,0 -0.234375,0.125 -0.234375,0.390625 0,0.265625 0.21875,0.421875 0.4375,0.421875 0.171875,0 0.421875,-0.125 0.421875,-0.4375 0,-0.3125 -0.3125,-0.609375 -0.734375,-0.609375 -0.734375,0 -1.09375,0.671875 -1.21875,1.09375 z m 0,0"
                 style="stroke:none"
                 inkscape:connector-curvature="0" />
            </symbol>
          </g>
        </defs>
        <g
           id="textext-918ae2f8-7">
          <g
             id="g2229"
             style="fill:#000000;fill-opacity:1">
            <use
               id="use2213"
               y="134.765"
               x="223.43201"
               xlink:href="#textext-918ae2f8-1"
               width="100%"
               height="100%" />
            <use
               id="use2215"
               y="134.765"
               x="231.04243"
               xlink:href="#textext-918ae2f8-2"
               width="100%"
               height="100%" />
            <use
               id="use2217"
               y="134.765"
               x="235.4698"
               xlink:href="#textext-918ae2f8-3"
               width="100%"
               height="100%" />
            <use
               id="use2219"
               y="134.765"
               x="239.34427"
               xlink:href="#textext-918ae2f8-2"
               width="100%"
               height="100%" />
            <use
               id="use2221"
               y="134.765"
               x="243.77164"
               xlink:href="#textext-918ae2f8-4"
               width="100%"
               height="100%" />
            <use
               id="use2223"
               y="134.765"
               x="248.19902"
               xlink:href="#textext-918ae2f8-3"
               width="100%"
               height="100%" />
            <use
               id="use2225"
               y="134.765"
               x="252.07349"
               xlink:href="#textext-918ae2f8-5"
               width="100%"
               height="100%" />
            <use
               id="use2227"
               y="134.765"
               x="257.05478"
               xlink:href="#textext-918ae2f8-6"
               width="100%"
               height="100%" />
          </g>
        </g>
      </g>
      <g
         id="g2445"
         ns0:preamble=""
         ns0:text="BS"
         transform="matrix(0.64359837,0,0,0.64359837,96.01259,89.118846)">
        <defs
           id="defs2436">
          <g
             id="g2434">
            <symbol
               id="textext-b6b0970b-0"
               overflow="visible"
               style="overflow:visible">
              <path
                 id="path2425"
                 d=""
                 style="stroke:none"
                 inkscape:connector-curvature="0" />
            </symbol>
            <symbol
               id="textext-b6b0970b-1"
               overflow="visible"
               style="overflow:visible">
              <path
                 id="path2428"
                 d="m 2.21875,-3.65625 v -2.4375 C 2.21875,-6.4375 2.234375,-6.5 2.703125,-6.5 H 3.9375 c 0.96875,0 1.3125,0.84375 1.3125,1.375 0,0.640625 -0.484375,1.46875 -1.59375,1.46875 z M 4.5625,-3.5625 C 5.53125,-3.75 6.21875,-4.390625 6.21875,-5.125 6.21875,-5.984375 5.296875,-6.8125 4,-6.8125 H 0.359375 V -6.5 H 0.59375 c 0.765625,0 0.796875,0.109375 0.796875,0.46875 v 5.25 c 0,0.359375 -0.03125,0.46875 -0.796875,0.46875 H 0.359375 V 0 h 3.90625 c 1.328125,0 2.21875,-0.890625 2.21875,-1.828125 0,-0.859375 -0.8125,-1.609375 -1.921875,-1.734375 z m -0.609375,3.25 h -1.25 c -0.46875,0 -0.484375,-0.0625 -0.484375,-0.390625 v -2.71875 h 1.875 C 5.078125,-3.421875 5.5,-2.5 5.5,-1.828125 5.5,-1.125 4.96875,-0.3125 3.953125,-0.3125 Z m 0,0"
                 style="stroke:none"
                 inkscape:connector-curvature="0" />
            </symbol>
            <symbol
               id="textext-b6b0970b-2"
               overflow="visible"
               style="overflow:visible">
              <path
                 id="path2431"
                 d="m 3.484375,-3.875 -1.28125,-0.296875 c -0.625,-0.15625 -1,-0.6875 -1,-1.265625 0,-0.703125 0.53125,-1.3125 1.3125,-1.3125 1.65625,0 1.875,1.640625 1.9375,2.078125 0.015625,0.0625 0.015625,0.125 0.125,0.125 0.125,0 0.125,-0.046875 0.125,-0.234375 v -2 c 0,-0.171875 0,-0.25 -0.109375,-0.25 -0.0625,0 -0.078125,0.015625 -0.140625,0.140625 l -0.359375,0.5625 C 3.796875,-6.625 3.390625,-7.03125 2.5,-7.03125 c -1.109375,0 -1.9375,0.875 -1.9375,1.9375 0,0.828125 0.53125,1.5625 1.296875,1.828125 0.109375,0.03125 0.625,0.15625 1.328125,0.328125 0.265625,0.0625 0.5625,0.140625 0.84375,0.5 0.203125,0.265625 0.3125,0.59375 0.3125,0.921875 0,0.703125 -0.5,1.421875 -1.34375,1.421875 -0.28125,0 -1.046875,-0.046875 -1.578125,-0.53125 C 0.84375,-1.171875 0.8125,-1.796875 0.8125,-2.15625 0.796875,-2.265625 0.71875,-2.265625 0.6875,-2.265625 c -0.125,0 -0.125,0.078125 -0.125,0.25 v 2 c 0,0.171875 0,0.234375 0.109375,0.234375 0.0625,0 0.078125,-0.015625 0.140625,-0.125 0,-0.015625 0.03125,-0.046875 0.359375,-0.578125 0.3125,0.34375 0.953125,0.703125 1.84375,0.703125 1.15625,0 1.953125,-0.96875 1.953125,-2.078125 0,-0.984375 -0.65625,-1.8125 -1.484375,-2.015625 z m 0,0"
                 style="stroke:none"
                 inkscape:connector-curvature="0" />
            </symbol>
          </g>
        </defs>
        <g
           id="textext-b6b0970b-3">
          <g
             id="g2442"
             style="fill:#000000;fill-opacity:1">
            <use
               id="use2438"
               y="134.765"
               x="223.43201"
               xlink:href="#textext-b6b0970b-1"
               width="100%"
               height="100%" />
            <use
               id="use2440"
               y="134.765"
               x="230.48851"
               xlink:href="#textext-b6b0970b-2"
               width="100%"
               height="100%" />
          </g>
        </g>
      </g>
    </g>
  </g>
</svg>
